<svg version="1.1" id="Capa_1" xmlns="http://www.w3.org/2000/svg"
xmlns:xlink="http://www.w3.org/1999/xlink" x="0px" y="0px" width="100%"
viewBox="0 0 512 512" style="enable-background:new 0 0 512 512;"
xml:space="preserve">
<g>
    <g>
        <path d="M111.709,344.693c-8.556,0-15.516,6.96-15.516,15.516c0,8.556,6.96,15.516,15.516,15.516
c8.556,0,15.516-6.96,15.516-15.516C127.225,351.653,120.265,344.693,111.709,344.693z" />
    </g>
</g>
<g>
    <g>
        <path d="M432.355,344.693c-8.556,0-15.516,6.96-15.516,15.516c0,8.556,6.96,15.516,15.516,15.516
c8.556,0,15.516-6.96,15.516-15.516C447.871,351.653,440.911,344.693,432.355,344.693z" />
    </g>
</g>
<g>
    <g>
        <path d="M495.909,245.23l-57.744-19.248l-26.989-74.218c-3.369-9.265-12.256-15.49-22.115-15.49h-69.448v-16.549
c0-8.556-6.96-15.516-15.516-15.516H15.516C6.96,104.209,0,111.17,0,119.726v216.436c0,8.556,6.96,15.516,15.516,15.516H64.91
c-0.504,2.77-0.781,5.619-0.781,8.532c0,26.236,21.345,47.581,47.581,47.581s47.581-21.345,47.581-47.581
c0-2.914-0.277-5.762-0.781-8.532h227.047c-0.504,2.77-0.781,5.619-0.781,8.532c0,26.236,21.345,47.581,47.581,47.581
c26.236,0,47.581-21.345,47.581-47.581c0-3.706-0.44-7.31-1.245-10.774l15.871-7.935C505.318,336.122,512,325.309,512,313.282
v-45.727C512,257.411,505.534,248.439,495.909,245.23z M15,119.726c0-0.285,0.231-0.517,0.516-0.517h288.581
c0.285,0,0.516,0.231,0.516,0.516v160.839H15V119.726z M111.709,392.791c-17.965,0-32.581-14.616-32.581-32.581
c0-17.965,14.616-32.581,32.581-32.581c17.965,0,32.581,14.616,32.581,32.581C144.291,378.175,129.675,392.791,111.709,392.791z
M304.613,336.677H153.038c-8.203-14.349-23.65-24.048-41.329-24.048c-17.679,0-33.125,9.699-41.328,24.048H15.516
c-0.285,0-0.516-0.231-0.516-0.516v-40.597h289.613V336.677z M406.698,183.339l14.95,41.113h-16.104l-14.95-41.113H406.698z
M319.613,151.274h69.448c3.575,0,6.797,2.257,8.019,5.616l4.163,11.448h-81.63V151.274z M319.613,183.339h55.02l14.95,41.113
h-69.97V183.339z M432.355,392.791c-17.965,0-32.581-14.616-32.581-32.581c0-17.965,14.616-32.581,32.581-32.581
c17.965,0,32.581,14.616,32.581,32.581C464.936,378.175,450.32,392.791,432.355,392.791z M497,280.563h-8.532
c-4.142,0-7.5,3.358-7.5,7.5c0,4.142,3.358,7.5,7.5,7.5H497v17.718c0,6.31-3.505,11.981-9.147,14.803l-14.847,7.423
c-8.36-13.707-23.454-22.878-40.651-22.878c-17.679,0-33.125,9.699-41.328,24.048h-71.414v-41.113h136.791
c4.142,0,7.5-3.358,7.5-7.5c0-4.142-3.358-7.5-7.5-7.5H319.613v-41.113h111.525l60.028,20.009c3.49,1.163,5.834,4.416,5.834,8.094
V280.563z" />
    </g>
</g>
<g>
    <g>
        <path class="accented" d="M251.705,193.375l-56.113-32.064c-3.595-2.055-8.177-0.805-10.233,2.791c-2.055,3.597-0.806,8.178,2.791,10.233
l31.592,18.053H71.629c-4.142,0-7.5,3.358-7.5,7.5c0,4.142,3.358,7.499,7.5,7.499h148.113L188.15,225.44
c-3.596,2.055-4.846,6.636-2.791,10.233c1.384,2.422,3.915,3.78,6.519,3.78c1.262,0,2.541-0.319,3.714-0.99l56.113-32.064
c2.336-1.335,3.779-3.82,3.779-6.512C255.484,197.195,254.042,194.711,251.705,193.375z" />
    </g>
</g>
</svg>