<svg id="Layer_1" enable-background="new 0 0 512 512" height="512" viewBox="0 0 512 512" width="512" xmlns="http://www.w3.org/2000/svg"><path d="m441.323 275.32v-140.27c0-2.867-1.527-5.523-4.014-6.957l-209.538-121.017c-2.486-1.432-5.552-1.432-8.035 0l-209.546 121.018c-2.48 1.434-4.01 4.09-4.01 6.957v241.908c0 2.863 1.529 5.518 4.01 6.953l209.545 121.012c1.24.715 2.632 1.074 4.02 1.074 1.383 0 2.768-.359 4.009-1.074l65.911-37.998c22.396 23.945 54.227 38.953 89.524 38.953 67.614 0 122.62-55.006 122.62-122.617 0-46.6-26.129-87.199-64.496-107.942zm-94.469-180.914-197.441 114c-2.481 1.438-4.012 4.09-4.012 6.959v43.68l-53.191-30.707v-48.314l201.502-116.309zm-123.097 394.291-201.514-116.377v-232.632l201.512-116.377 53.893 31.127-197.481 113.996c-2.49 1.434-4.018 4.084-4.018 6.955v57.588c0 2.867 1.527 5.52 4.012 6.955l69.252 39.982c1.248.715 2.635 1.068 4.02 1.068 1.384 0 2.773-.354 4.018-1.068 2.484-1.436 4.014-4.09 4.014-6.955v-52.955l201.45-116.322 62.347 36.006v128.385c-13.125-4.803-27.292-7.432-42.062-7.432-67.614 0-122.62 55.006-122.62 122.621 0 26.477 8.469 51.002 22.789 71.063zm159.442 1.121c-58.756 0-106.56-47.801-106.56-106.557 0-58.758 47.804-106.559 106.56-106.559 58.753 0 106.558 47.801 106.558 106.559 0 58.757-47.805 106.557-106.558 106.557zm8.028-188.422v81.865c0 4.436-3.591 8.031-8.027 8.031h-52c-4.44 0-8.033-3.596-8.033-8.031 0-4.439 3.593-8.033 8.033-8.033h43.967v-73.832c0-4.436 3.596-8.031 8.032-8.031s8.028 3.596 8.028 8.031z"/></svg>