<svg version="1.1" id="Capa_1" xmlns="http://www.w3.org/2000/svg"
                                    xmlns:xlink="http://www.w3.org/1999/xlink" x="0px" y="0px" width="100%"
                                    viewBox="0 0 512 512" style="enable-background:new 0 0 512 512;"
                                    xml:space="preserve">
                                    <g>
                                        <g>
                                            <path
                                                d="M400.292,32.064h-48.613v-5.276c0-12.572-18.105-17.987-31.724-20.966C302.789,2.068,280.076,0,256,0
                              s-46.789,2.068-63.954,5.823c-13.619,2.979-31.724,8.394-31.724,20.966v5.276h-48.613c-21.816,0-39.564,17.749-39.564,39.565
                              v400.806c0,21.816,17.749,39.564,39.564,39.564H400.29c21.816,0,39.564-17.749,39.564-39.564V71.629
                              C439.856,49.813,422.107,32.064,400.292,32.064z M175.324,27.751C179.771,23.209,207.419,15,256,15
                              c48.582,0,76.229,8.209,80.677,12.751v35.862c0,0.285-0.231,0.516-0.516,0.516H175.839c-0.285,0-0.516-0.232-0.516-0.516V27.751z
                               M400.292,497H111.709c-13.545,0-24.564-11.02-24.564-24.564V71.629c0-13.545,11.02-24.565,24.564-24.565h48.613v16.548
                              c0,8.556,6.96,15.516,15.516,15.516h160.322c8.556,0,15.516-6.961,15.516-15.516V47.064h48.613
                              c13.545,0,24.564,11.02,24.564,24.565v400.807h0.002C424.856,485.981,413.836,497,400.292,497z" />
                                        </g>
                                    </g>
                                    <g>
                                        <g>
                                            <path d="M392.274,64.129h-16.033c-4.142,0-7.5,3.358-7.5,7.5c0,4.142,3.358,7.5,7.5,7.5h16.033c0.285,0,0.516,0.231,0.516,0.516
                              v352.709c0,0.285-0.231,0.516-0.516,0.516H119.727c-0.285,0-0.516-0.231-0.516-0.516V79.645c0-0.285,0.231-0.516,0.516-0.516
                              h16.033c4.142,0,7.5-3.358,7.5-7.5c0-4.142-3.358-7.5-7.5-7.5h-16.033c-8.556,0-15.516,6.96-15.516,15.516v352.709
                              c0,8.556,6.96,15.516,15.516,15.516h272.549c8.556,0,15.516-6.96,15.516-15.516V79.645
                              C407.792,71.09,400.831,64.129,392.274,64.129z" />
                                        </g>
                                    </g>
                                    <g>
                                        <g>
                                            <path class="accented"
                                                d="M183.855,128.259c-12.975,0-23.532,10.557-23.532,23.532c0,12.975,10.556,23.532,23.532,23.532
                              c12.976,0,23.532-10.557,23.532-23.532C207.388,138.816,196.831,128.259,183.855,128.259z M183.855,160.322
                              c-4.704,0-8.532-3.828-8.532-8.532s3.827-8.532,8.532-8.532c4.705,0,8.532,3.828,8.532,8.532S188.56,160.322,183.855,160.322z" />
                                        </g>
                                    </g>
                                    <g>
                                        <g>
                                            <path class="accented" d="M344.178,128.258H231.953c-4.142,0-7.5,3.358-7.5,7.5c0,4.142,3.358,7.5,7.5,7.5h112.226c4.142,0,7.5-3.358,7.5-7.5
                              C351.678,131.616,348.32,128.258,344.178,128.258z" />
                                        </g>
                                    </g>
                                    <g>
                                        <g>
                                            <path class="accented" d="M239.969,160.323h-8.016c-4.142,0-7.5,3.358-7.5,7.5c0,4.142,3.358,7.5,7.5,7.5h8.016c4.142,0,7.5-3.358,7.5-7.5
                              C247.469,163.681,244.11,160.323,239.969,160.323z" />
                                        </g>
                                    </g>
                                    <g>
                                        <g>
                                            <path class="accented" d="M304.096,160.323h-32.064c-4.142,0-7.5,3.358-7.5,7.5c0,4.142,3.358,7.5,7.5,7.5h32.064c4.142,0,7.5-3.358,7.5-7.5
                              C311.596,163.681,308.239,160.323,304.096,160.323z" />
                                        </g>
                                    </g>
                                    <g>
                                        <g>
                                            <path class="accented"
                                                d="M183.855,200.404c-12.975,0-23.532,10.557-23.532,23.532c0,12.975,10.556,23.532,23.532,23.532
                              c12.976,0,23.532-10.557,23.532-23.532C207.388,210.961,196.831,200.404,183.855,200.404z M183.855,232.467
                              c-4.704,0-8.532-3.828-8.532-8.532s3.827-8.532,8.532-8.532c4.705,0,8.532,3.828,8.532,8.532S188.56,232.467,183.855,232.467z" />
                                        </g>
                                    </g>
                                    <g>
                                        <g>
                                            <path class="accented" d="M344.178,200.403H231.953c-4.142,0-7.5,3.358-7.5,7.5c0,4.142,3.358,7.5,7.5,7.5h112.226c4.142,0,7.5-3.358,7.5-7.5
                              C351.678,203.761,348.32,200.403,344.178,200.403z" />
                                        </g>
                                    </g>
                                    <g>
                                        <g>
                                            <path class="accented" d="M239.969,232.468h-8.016c-4.142,0-7.5,3.358-7.5,7.5c0,4.142,3.358,7.5,7.5,7.5h8.016c4.142,0,7.5-3.358,7.5-7.5
                              C247.469,235.826,244.11,232.468,239.969,232.468z" />
                                        </g>
                                    </g>
                                    <g>
                                        <g>
                                            <path class="accented" d="M304.096,232.468h-32.064c-4.142,0-7.5,3.358-7.5,7.5c0,4.142,3.358,7.5,7.5,7.5h32.064c4.142,0,7.5-3.358,7.5-7.5
                              C311.596,235.826,308.239,232.468,304.096,232.468z" />
                                        </g>
                                    </g>
                                    <g>
                                        <g>
                                            <path class="accented" d="M183.855,272.549c-12.975,0-23.532,10.557-23.532,23.532c0,12.975,10.556,23.532,23.532,23.532
                              c12.976,0,23.532-10.557,23.532-23.532C207.388,283.106,196.831,272.549,183.855,272.549z M183.855,304.612
                              c-4.704,0-8.532-3.828-8.532-8.532c0-4.704,3.827-8.532,8.532-8.532c4.705,0,8.532,3.828,8.532,8.532
                              C192.388,300.784,188.56,304.612,183.855,304.612z" />
                                        </g>
                                    </g>
                                    <g>
                                        <g>
                                            <path class="accented" d="M344.178,272.548H231.953c-4.142,0-7.5,3.358-7.5,7.5c0,4.142,3.358,7.5,7.5,7.5h112.226c4.142,0,7.5-3.358,7.5-7.5
                              C351.678,275.906,348.32,272.548,344.178,272.548z" />
                                        </g>
                                    </g>
                                    <g>
                                        <g>
                                            <path class="accented" d="M239.969,304.613h-8.016c-4.142,0-7.5,3.358-7.5,7.5c0,4.142,3.358,7.5,7.5,7.5h8.016c4.142,0,7.5-3.358,7.5-7.5
                              C247.469,307.971,244.11,304.613,239.969,304.613z" />
                                        </g>
                                    </g>
                                    <g>
                                        <g>
                                            <path class="accented" d="M304.096,304.613h-32.064c-4.142,0-7.5,3.358-7.5,7.5c0,4.142,3.358,7.5,7.5,7.5h32.064c4.142,0,7.5-3.358,7.5-7.5
                              C311.596,307.971,308.239,304.613,304.096,304.613z" />
                                        </g>
                                    </g>
                                    <g>
                                        <g>
                                            <path class="accented" d="M183.855,344.694c-12.975,0-23.532,10.557-23.532,23.532c0,12.975,10.556,23.532,23.532,23.532
                              c12.976,0,23.532-10.557,23.532-23.532C207.388,355.251,196.831,344.694,183.855,344.694z M183.855,376.758
                              c-4.704,0-8.532-3.828-8.532-8.532c0-4.704,3.827-8.532,8.532-8.532c4.705,0,8.532,3.828,8.532,8.532
                              C192.388,372.93,188.56,376.758,183.855,376.758z" />
                                        </g>
                                    </g>
                                    <g>
                                        <g>
                                            <path class="accented" d="M344.178,344.694H231.953c-4.142,0-7.5,3.358-7.5,7.5c0,4.142,3.358,7.5,7.5,7.5h112.226c4.142,0,7.5-3.358,7.5-7.5
                              C351.678,348.052,348.32,344.694,344.178,344.694z" />
                                        </g>
                                    </g>
                                    <g>
                                        <g>
                                            <path class="accented" d="M239.969,376.758h-8.016c-4.142,0-7.5,3.358-7.5,7.5c0,4.142,3.358,7.5,7.5,7.5h8.016c4.142,0,7.5-3.358,7.5-7.5
                              C247.469,380.116,244.11,376.758,239.969,376.758z" />
                                        </g>
                                    </g>
                                    <g>
                                        <g>
                                            <path class="accented" d="M304.096,376.758h-32.064c-4.142,0-7.5,3.358-7.5,7.5c0,4.142,3.358,7.5,7.5,7.5h32.064c4.142,0,7.5-3.358,7.5-7.5
                              C311.596,380.116,308.239,376.758,304.096,376.758z" />
                                        </g>
                                    </g>
                                    <g>
                                        <g>
                                            <path d="M256.041,32.064h-0.08c-4.142,0-7.46,3.358-7.46,7.5c0,4.142,3.398,7.5,7.54,7.5c4.142,0,7.5-3.358,7.5-7.5
                              C263.541,35.422,260.182,32.064,256.041,32.064z" />
                                        </g>
                                    </g>
                                </svg>