<svg id="Layer_1" height="512" viewBox="0 0 128 128" width="512" xmlns="http://www.w3.org/2000/svg" data-name="Layer 1"><path d="m11.59 65.89 11.19 8a2 2 0 0 0 2.79-.47l8-11.19a2 2 0 1 0 -3.27-2.33l-5.18 7.25a41.82 41.82 0 1 1 79.64 6.11 2 2 0 0 0 1.12 2.6 2 2 0 0 0 .74.14 2 2 0 0 0 1.86-1.26 45.82 45.82 0 1 0 -87.31-6.92l-7.26-5.18a2 2 0 1 0 -2.32 3.25z"/><path d="m113.08 83.24c-4-4.73-10.56-2.56-14.1-1.4-2.24.74-7.61 3-12.9 5.24a8.26 8.26 0 0 0 -.62-5c-2.86-6.53-9.92-5.28-15.08-4.36a27.61 27.61 0 0 1 -4.84.61 20.2 20.2 0 0 1 -8-1.75 24.66 24.66 0 0 0 -10.37-2 50.57 50.57 0 0 0 -19.76 4.42l-1.12.46c-9.29 3.7-13.29 4.54-13.29 4.54a2 2 0 0 0 -1.55 1.48c-.07.29-1.64 7 2.81 16.43 3.82 8 8.29 11.07 11.36 12.18a2 2 0 0 0 1.91-.31s2.51-2 4.43-3.12c1.27-.77 4.36-1.26 11.92.84a92.12 92.12 0 0 0 21.42 3.07 25 25 0 0 0 8.32-1.14c7.89-3 27.09-13 34.64-17.1 4-2.18 6.18-4.53 6.68-7.19a7 7 0 0 0 -1.86-5.9zm-2.08 5.17c-.25 1.35-1.91 2.92-4.66 4.42-6.34 3.47-26.28 13.92-34.13 16.87-5.51 2.06-19.38.14-27.26-2a37.74 37.74 0 0 0 -9.71-1.7 10.14 10.14 0 0 0 -5.37 1.24c-1.35.82-2.89 1.94-3.86 2.66-3-1.5-5.85-4.9-8.14-9.72a25.11 25.11 0 0 1 -2.68-12.62 121.45 121.45 0 0 0 12.59-4.44l1.15-.47a46.3 46.3 0 0 1 18.32-4.1 20.5 20.5 0 0 1 8.88 1.77 23.77 23.77 0 0 0 9.34 2 32.17 32.17 0 0 0 5.61-.67c5.51-1 9.23-1.37 10.71 2a4.22 4.22 0 0 1 .15 3.35c-.56 1.38-2 2.64-4.26 3.66-2 .84-3.5 1.49-4.16 1.75-4.24 1.66-7.89 1.08-11.42.52l-1.94-.3a2 2 0 0 0 -.54 4c.61.08 1.23.18 1.85.28 3.87.61 8.25 1.3 13.51-.75.61-.24 1.83-.75 3.45-1.45.3-.12.59-.24.87-.37l2.58-1.1c6.51-2.8 15.43-6.64 18.36-7.6 4.65-1.53 7.91-2 9.78.18 1.21 1.42 1.04 2.3.98 2.59z"/><path d="m64 33.76v2.65a8.76 8.76 0 0 0 -2 .72 6.31 6.31 0 0 0 -3.47 5.47c-.14 4.39 3.81 5.86 6.69 6.93 3.36 1.25 4.38 1.89 4.23 3.49a2.76 2.76 0 0 1 -1.84 2.45 6.86 6.86 0 0 1 -5.93-.5 2 2 0 0 0 -2.48 3.15 9.34 9.34 0 0 0 4.8 1.73v2.39a2 2 0 1 0 4 0v-2.69a9.82 9.82 0 0 0 1.23-.4 6.75 6.75 0 0 0 4.25-5.74c.48-4.92-3.91-6.55-6.81-7.63-3.11-1.15-4.14-1.75-4.1-3.05a2.34 2.34 0 0 1 1.36-2.07 6.07 6.07 0 0 1 5.74.49 2 2 0 1 0 2.12-3.39 10.6 10.6 0 0 0 -3.79-1.45v-2.55a2 2 0 1 0 -4 0z"/><path d="m42 48a24 24 0 1 0 24-24 24 24 0 0 0 -24 24zm44 0a20 20 0 1 1 -20-20 20 20 0 0 1 20 20z"/></svg>