<svg width="146" height="146" viewBox="0 0 146 146" fill="none" xmlns="http://www.w3.org/2000/svg">
<path d="M49.7715 83.0696C49.7715 79.1122 46.5449 75.893 42.5766 75.893C38.6083 75.893 35.3802 79.1122 35.3802 83.0696C35.3802 87.027 38.6083 90.2462 42.5766 90.2462C46.5449 90.2462 49.7715 87.027 49.7715 83.0696ZM41.5035 83.0696C41.5035 82.4799 41.9853 82.0009 42.5766 82.0009C43.1664 82.0009 43.6482 82.4799 43.6482 83.0696C43.6482 83.6593 43.1664 84.1383 42.5766 84.1383C41.9853 84.1383 41.5035 83.6593 41.5035 83.0696ZM138.699 27.5451C138.699 20.1995 132.707 14.2227 125.34 14.2227H30.5841C28.8935 14.2227 27.5225 15.5898 27.5225 17.2773V34.7625H17.5799C15.8892 34.7625 14.5183 36.1296 14.5183 37.8157V65.6282H10.3631C8.67245 65.6282 7.30151 66.9954 7.30151 68.6829V97.4622C7.30151 99.1482 8.67245 100.517 10.3631 100.517H14.5168V128.329C14.5168 130.015 15.8878 131.384 17.5785 131.384H126.979C133.44 131.384 138.697 126.228 138.697 119.893V30.4236C138.697 30.0974 138.633 29.7902 138.538 29.4946C138.633 28.8569 138.699 28.209 138.699 27.5451ZM33.6458 20.3291H125.34C129.33 20.3291 132.574 23.5658 132.574 27.5451C132.574 31.5243 129.328 34.761 125.34 34.761H33.6458V20.3291ZM13.4262 71.7347H42.562C48.8298 71.7347 53.9295 76.8205 53.9295 83.0696C53.9295 89.3188 48.8298 94.4046 42.562 94.4046H13.4262V71.7347ZM126.981 125.27H20.6415V100.513H42.562C52.2067 100.513 60.0528 92.688 60.0528 83.0696C60.0528 73.4513 52.2067 65.6267 42.562 65.6267H20.6415V40.8675H30.5798H30.5856H125.341C128.007 40.8675 130.489 40.0754 132.575 38.7271V119.887C132.574 122.856 130.064 125.27 126.981 125.27Z" fill="#0DA487"/>
</svg>
