<svg width="17" height="17" viewBox="0 0 17 17" fill="none" xmlns="http://www.w3.org/2000/svg">
<path d="M7.60092 0.846398C7.96594 0.0967873 9.03406 0.0967877 9.39908 0.846399L11.1823 4.50848C11.328 4.80778 11.6131 5.01493 11.9428 5.06105L15.9767 5.62533C16.8024 5.74083 17.1325 6.75668 16.5324 7.33547L13.6006 10.163C13.3609 10.3941 13.252 10.7293 13.3101 11.0571L14.0199 15.0679C14.1652 15.8889 13.3011 16.5168 12.5652 16.1249L8.97004 14.2103C8.67621 14.0538 8.32379 14.0538 8.02996 14.2103L4.4348 16.1249C3.69889 16.5168 2.83476 15.8889 2.98007 15.0679L3.68995 11.0571C3.74797 10.7293 3.63906 10.3941 3.39945 10.163L0.467634 7.33547C-0.132493 6.75668 0.197577 5.74083 1.02329 5.62533L5.05718 5.06105C5.38687 5.01493 5.67199 4.80778 5.81773 4.50848L7.60092 0.846398Z" fill="#476A7B"/>
</svg>
