<svg width="20" height="20" viewBox="0 0 20 20" fill="none" xmlns="http://www.w3.org/2000/svg">
<path d="M1.77321 13.1107L0.632586 5.69697C0.614033 5.57554 0.632048 5.45133 0.684335 5.34016C0.736623 5.229 0.820817 5.13592 0.926192 5.07277C1.03157 5.00963 1.15335 4.97928 1.27604 4.98559C1.39872 4.99191 1.51675 5.0346 1.61509 5.10822L5.16884 7.77322C5.26118 7.84251 5.36668 7.89223 5.47889 7.91934C5.59111 7.94646 5.70767 7.95039 5.82146 7.93091C5.93525 7.91143 6.04387 7.86894 6.14067 7.80604C6.23747 7.74314 6.32043 7.66116 6.38446 7.5651L9.34321 3.1251C9.41534 3.0172 9.51296 2.92875 9.62742 2.86758C9.74189 2.80642 9.86967 2.77441 9.99946 2.77441C10.1292 2.77441 10.257 2.80642 10.3715 2.86758C10.486 2.92875 10.5836 3.0172 10.6557 3.1251L13.6145 7.5626C13.6785 7.65866 13.7614 7.74064 13.8583 7.80354C13.9551 7.86644 14.0637 7.90893 14.1775 7.92841C14.2912 7.94789 14.4078 7.94396 14.52 7.91684C14.6322 7.88973 14.7377 7.84001 14.8301 7.77072L18.3838 5.10572C18.4822 5.0321 18.6002 4.98941 18.7229 4.98309C18.8456 4.97678 18.9674 5.00713 19.0727 5.07027C19.1781 5.13342 19.2623 5.2265 19.3146 5.33766C19.3669 5.44883 19.3849 5.57304 19.3663 5.69447L18.2257 13.1082L1.77321 13.1107ZM1.77321 14.482H18.227V16.3664C18.227 16.479 18.2048 16.5906 18.1616 16.6947C18.1185 16.7989 18.0553 16.8935 17.9756 16.9731C17.8959 17.0528 17.8013 17.116 17.6972 17.1592C17.5931 17.2023 17.4815 17.2245 17.3688 17.2245H2.63134C2.51865 17.2245 2.40706 17.2023 2.30295 17.1592C2.19883 17.116 2.10423 17.0528 2.02455 16.9731C1.86362 16.8122 1.77321 16.5939 1.77321 16.3664V14.482Z" fill="#1C152C"/>
</svg>
