<svg width="20" height="20" viewBox="0 0 20 20" fill="none" xmlns="http://www.w3.org/2000/svg">
<path d="M2.29175 7.14665V10.48C2.29175 10.6457 2.2259 10.8047 2.10869 10.9219C1.99148 11.0391 1.83251 11.105 1.66675 11.105C1.50099 11.105 1.34202 11.0391 1.22481 10.9219C1.1076 10.8047 1.04175 10.6457 1.04175 10.48V7.14665C1.04175 6.98089 1.1076 6.82192 1.22481 6.70471C1.34202 6.58749 1.50099 6.52165 1.66675 6.52165C1.83251 6.52165 1.99148 6.58749 2.10869 6.70471C2.2259 6.82192 2.29175 6.98089 2.29175 7.14665ZM18.3334 6.52165C18.2513 6.52165 18.1701 6.53781 18.0942 6.56922C18.0184 6.60063 17.9495 6.64667 17.8915 6.70471C17.8334 6.76274 17.7874 6.83164 17.756 6.90747C17.7246 6.9833 17.7084 7.06457 17.7084 7.14665V10.48C17.7084 10.6457 17.7743 10.8047 17.8915 10.9219C18.0087 11.0391 18.1677 11.105 18.3334 11.105C18.4992 11.105 18.6581 11.0391 18.7754 10.9219C18.8926 10.8047 18.9584 10.6457 18.9584 10.48V7.14665C18.9584 6.98089 18.8926 6.82192 18.7754 6.70471C18.6581 6.58749 18.4992 6.52165 18.3334 6.52165ZM4.16675 13.8133C4.16675 14.2553 4.34234 14.6793 4.6549 14.9918C4.96746 15.3044 5.39139 15.48 5.83342 15.48H7.88758C8.02474 15.48 8.15979 15.5138 8.28073 15.5785C8.40168 15.6432 8.50479 15.7367 8.58091 15.8508L9.65341 17.4591C9.69147 17.5162 9.74302 17.563 9.80349 17.5954C9.86397 17.6277 9.93149 17.6447 10.0001 17.6447C10.0687 17.6447 10.1362 17.6277 10.1967 17.5954C10.2571 17.563 10.3087 17.5162 10.3467 17.4591L11.4192 15.8508C11.4954 15.7367 11.5985 15.6432 11.7194 15.5785C11.8404 15.5138 11.9754 15.48 12.1126 15.48H14.1667C14.6088 15.48 15.0327 15.3044 15.3453 14.9918C15.6578 14.6793 15.8334 14.2553 15.8334 13.8133V12.1466H4.16675V13.8133ZM15.8334 6.31331V10.8966H4.16675V6.31331C4.16675 5.87129 4.34234 5.44736 4.6549 5.1348C4.96746 4.82224 5.39139 4.64665 5.83342 4.64665H9.37508V2.97998C9.37508 2.81422 9.44093 2.65525 9.55814 2.53804C9.67535 2.42083 9.83432 2.35498 10.0001 2.35498C10.1658 2.35498 10.3248 2.42083 10.442 2.53804C10.5592 2.65525 10.6251 2.81422 10.6251 2.97998V4.64665H14.1667C14.6088 4.64665 15.0327 4.82224 15.3453 5.1348C15.6578 5.44736 15.8334 5.87129 15.8334 6.31331ZM8.33342 8.81331C8.33342 8.6485 8.28454 8.48738 8.19297 8.35034C8.10141 8.2133 7.97126 8.10649 7.81898 8.04341C7.66671 7.98034 7.49916 7.96384 7.33751 7.99599C7.17586 8.02815 7.02737 8.10751 6.91083 8.22406C6.79428 8.3406 6.71491 8.48909 6.68276 8.65074C6.65061 8.81239 6.66711 8.97994 6.73018 9.13222C6.79325 9.28449 6.90007 9.41464 7.03711 9.50621C7.17415 9.59777 7.33526 9.64665 7.50008 9.64665C7.7211 9.64665 7.93306 9.55885 8.08934 9.40257C8.24562 9.24629 8.33342 9.03433 8.33342 8.81331ZM13.3334 8.81331C13.3334 8.6485 13.2845 8.48738 13.193 8.35034C13.1014 8.2133 12.9713 8.10649 12.819 8.04341C12.6667 7.98034 12.4992 7.96384 12.3375 7.99599C12.1759 8.02815 12.0274 8.10751 11.9108 8.22406C11.7943 8.3406 11.7149 8.48909 11.6828 8.65074C11.6506 8.81239 11.6671 8.97994 11.7302 9.13222C11.7933 9.28449 11.9001 9.41464 12.0371 9.50621C12.1741 9.59777 12.3353 9.64665 12.5001 9.64665C12.7211 9.64665 12.9331 9.55885 13.0893 9.40257C13.2456 9.24629 13.3334 9.03433 13.3334 8.81331Z" fill="#FE7A30"/>
</svg>
