<svg version="1.2" xmlns="http://www.w3.org/2000/svg" viewBox="0 0 500 428" width="500" height="428">
	<title>Warning-rafiki-svg</title>
	<style>
		.s0 { fill: #ebebeb } 
		.s1 { fill: #e6e6e6 } 
		.s2 { fill: #f0f0f0 } 
		.s3 { fill: #fafafa } 
		.s4 { fill: #ffffff } 
		.s5 { opacity: .6;fill: #ebebeb } 
		.s6 { fill: #e0e0e0 } 
		.s7 { fill: #f5f5f5 } 
		.s8 { fill: #0da487 } 
		.s9 { opacity: .1;fill: #263238 } 
		.s10 { fill: #7f3e3b } 
		.s11 { fill: #263238 } 
		.s12 { fill: #630f0f } 
		.s13 { opacity: .2;fill: #000000 } 
		.s14 { fill: #000000 } 
		.s15 { opacity: .3;fill: #000000 } 
	</style>
	<g id="freepik--background-complete--inject-17">
		<path id="Layer" class="s0" d="m0 382.4h500v0.3h-500z"/>
		<path id="Layer" class="s0" d="m416.8 398.5h33.1v0.2h-33.1z"/>
		<path id="Layer" class="s0" d="m322.5 401.2h8.7v0.3h-8.7z"/>
		<path id="Layer" class="s0" d="m396.6 389.2h19.2v0.3h-19.2z"/>
		<path id="Layer" class="s0" d="m52.5 390.9h43.2v0.2h-43.2z"/>
		<path id="Layer" class="s0" d="m104.6 390.9h6.3v0.2h-6.3z"/>
		<path id="Layer" class="s0" d="m131.5 395.1h93.7v0.3h-93.7z"/>
		<path id="Layer" fill-rule="evenodd" class="s0" d="m237 337.8h-193.1q-1.1 0-2.2-0.4-1-0.5-1.8-1.3-0.8-0.8-1.3-1.8-0.4-1.1-0.4-2.2v-271.4q0-1.2 0.5-2.2 0.4-1 1.2-1.8 0.8-0.8 1.8-1.3 1.1-0.4 2.2-0.4h193.1q1.1 0 2.2 0.4 1 0.5 1.8 1.3 0.8 0.8 1.3 1.8 0.4 1.1 0.4 2.2v271.4q0 1.1-0.4 2.2-0.5 1-1.3 1.8-0.8 0.8-1.8 1.3-1.1 0.4-2.2 0.4zm-193.1-282.6q-1.1 0-2.1 0.4-1 0.4-1.7 1.2-0.8 0.8-1.2 1.8-0.4 1-0.4 2.1v271.4q0 1.1 0.4 2.1 0.4 1 1.2 1.7 0.7 0.8 1.7 1.2 1 0.4 2.1 0.5l193.1-0.1q1.1 0 2.1-0.4 1-0.4 1.8-1.2 0.7-0.7 1.1-1.7 0.5-1 0.5-2.1v-271.4q0-1.1-0.5-2.1-0.4-1-1.1-1.8-0.8-0.8-1.8-1.2-1-0.4-2.1-0.4z"/>
		<path id="Layer" fill-rule="evenodd" class="s0" d="m453.3 337.8h-193.1q-1.1 0-2.2-0.4-1-0.5-1.8-1.3-0.8-0.8-1.3-1.8-0.4-1.1-0.4-2.2v-271.4q0-1.2 0.5-2.2 0.4-1 1.2-1.8 0.8-0.8 1.8-1.3 1.1-0.4 2.2-0.4h193.1q1.1 0 2.2 0.4 1 0.5 1.8 1.3 0.8 0.8 1.3 1.8 0.4 1 0.4 2.2v271.4q0 1.1-0.4 2.2-0.5 1-1.3 1.8-0.8 0.8-1.8 1.3-1.1 0.4-2.2 0.4zm-193.1-282.6q-1.1 0-2.1 0.4-1 0.4-1.7 1.2-0.8 0.8-1.2 1.8-0.4 1-0.5 2.1v271.4q0.1 1.1 0.5 2.1 0.4 1 1.2 1.7 0.7 0.8 1.7 1.2 1 0.4 2.1 0.4h193.1q1.1 0 2.1-0.4 1-0.4 1.8-1.2 0.7-0.7 1.2-1.7 0.4-1 0.4-2.1v-271.4q0-1.1-0.4-2.1-0.5-1-1.2-1.8-0.8-0.8-1.8-1.2-1-0.4-2.1-0.4z"/>
		<path id="Layer" class="s1" d="m101.3 76.2h291.8v136.5h-291.8z"/>
		<path id="Layer" class="s2" d="m103.3 76.2h294.2v136.5h-294.2z"/>
		<path id="Layer" class="s1" d="m101.3 212.7h291.8v6.9h-291.8z"/>
		<path id="Layer" class="s2" d="m110.7 212.7h294.1v6.9h-294.1z"/>
		<path id="Layer" class="s3" d="m391.3 82.3v124.2h-281.8v-124.2z"/>
		<path id="Layer" class="s4" d="m139.7 206.5l17.2-124.2h26.7l-17.1 124.2h-26.8z"/>
		<path id="Layer" class="s2" d="m112.3 200.4q0 0-0.1 0-0.1-0.1-0.2-0.1 0-0.1-0.1-0.2 0-0.1 0-0.1v-113.7q0-0.1 0-0.1 0.1-0.1 0.1-0.2 0.1-0.1 0.2-0.1 0.1 0 0.1 0 0.1 0 0.2 0 0.1 0 0.2 0.1 0 0.1 0 0.2 0.1 0 0.1 0.1v113.7q0 0.1-0.1 0.2 0 0-0.1 0.1 0 0-0.1 0.1-0.1 0-0.2 0z"/>
		<path id="Layer" class="s4" d="m172.2 206.5l17.1-124.2h10.5l-17.2 124.2h-10.4z"/>
		<path id="Layer" class="s1" d="m391.3 82.3v124.2h-0.8v-124.2z"/>
		<path id="Layer" class="s5" d="m398.9 91.6h-291.8l-0.5-6.9h291.8l0.5 6.9z"/>
		<path id="Layer" class="s5" d="m398.9 102.9h-291.8l-0.5-6.9h291.8l0.5 6.9z"/>
		<path id="Layer" class="s5" d="m398.9 114.2h-291.8l-0.5-6.9h291.8l0.5 6.9z"/>
		<path id="Layer" class="s5" d="m398.9 125.5h-291.8l-0.5-6.9h291.8l0.5 6.9z"/>
		<path id="Layer" class="s5" d="m398.9 136.8h-291.8l-0.5-6.9h291.8l0.5 6.9z"/>
		<path id="Layer" class="s5" d="m398.9 148.1h-291.8l-0.5-6.9h291.8l0.5 6.9z"/>
		<path id="Layer" class="s1" d="m394.5 247h44.5v135.4h-44.5z"/>
		<path id="Layer" class="s3" d="m427.1 382.4h11.9v-18.7h-24.4l12.5 18.7z"/>
		<path id="Layer" class="s1" d="m273.1 247h44.5v135.4h-44.5z"/>
		<path id="Layer" class="s3" d="m307.2 247h131.8v129h-131.8z"/>
		<path id="Layer" class="s3" d="m319.1 382.4h-11.9v-18.7h24.4l-12.5 18.7z"/>
		<path id="Layer" class="s2" d="m316.4 295.1h113.4v32.2h-113.4z"/>
		<path id="Layer" class="s2" d="m316.4 334.2h113.4v32.3h-113.4z"/>
		<path id="Layer" class="s3" d="m334.2 292.3h77.8v1.5q0 1-0.4 1.8-0.3 0.9-1 1.5-0.6 0.7-1.5 1-0.8 0.4-1.8 0.4h-68.4q-0.9 0-1.8-0.4-0.8-0.3-1.5-1-0.6-0.6-1-1.5-0.3-0.8-0.3-1.8v-1.5c-334.3-292.3-334.3-292.3-334.3-292.3z"/>
		<path id="Layer" class="s2" d="m316.4 255.9h113.4v32.2h-113.4z"/>
		<path id="Layer" class="s3" d="m334.2 253.1h77.8v1.6q0 0.9-0.4 1.7-0.3 0.9-1 1.6-0.6 0.6-1.5 1-0.8 0.3-1.8 0.3h-68.4q-0.9 0-1.8-0.3-0.8-0.4-1.5-1-0.6-0.7-1-1.6-0.3-0.8-0.3-1.7v-1.6c-334.3-253.1-334.3-253.1-334.3-253.1z"/>
		<path id="Layer" class="s3" d="m334.2 331.4h77.8v1.6q0 0.9-0.4 1.8-0.3 0.8-1 1.5-0.6 0.7-1.5 1-0.8 0.4-1.8 0.4h-68.4q-0.9 0-1.8-0.4-0.8-0.3-1.5-1-0.6-0.7-1-1.5-0.3-0.9-0.3-1.8v-1.6c-334.3-331.4-334.3-331.4-334.3-331.4z"/>
		<path id="Layer" class="s1" d="m53.4 275.9c2.5-7.2 22 2.5 30 14.3 5.3 7.9 8.5 16.3 10 27.6-0.2-12.9-0.4-26.7-0.6-39.8-1.6-3.2-5.2-10.7-7.9-16.6-8.8-19.9-29.7-27.2-37-39.8-9.4-16.4-9.4-41-1.3-49.8 7-7.7 30.2 44.4 32.8 50.2 9 20 11.6 35 13.3 49.4-0.2-12.3-0.4-23.5-0.5-32.2-0.5-28.3-1.1-37.4-1.4-40.2-1-1.4-2.1-3-2.8-3.8-5.6-7.3-18.1-15.9-24.3-26.4-9.1-15.3-7.6-33.7-1.2-40.5 6.7-7.2 18.5 9.7 24.7 26.5 6.2 16.8 3.6 32.7 5.4 46.7 0.3 2.7 0.7 13 1 27.4 2-15.5 5.7-25.8 12.7-35.5 8.6-11.8 16.1-26.3 23.2-24.4 7.1 1.9 3.3 21-2.4 34.4-5 11.9-29.6 23.9-33.3 33.5 0.5 19.5 0.8 44.1 1.1 67.1 2-11.9 0.6-12.9 8.6-31 4.7-10.8 24.2-24.1 26.5-16.7 2.3 7.4-1.2 21.5-8.6 31.3-5.9 7.9-19 7.9-22 12.8-0.8 1.2-3 5.6-4.4 8.1 0.3 28 0.4 52.8 0.3 61.2l-1.3 0.1c0.1-2.2-0.1-16.4-0.4-35.3-3.1-10-24.6-15.9-31.2-26.4-7-10.9-12-23.7-9-32.2z"/>
		<path id="Layer" class="s2" d="m73.6 382.4h41.2q0.8 0 1.6-0.3 0.8-0.3 1.4-0.8 0.6-0.5 1.1-1.2 0.4-0.7 0.5-1.5l3-14.4h-56.4l3 14.4q0.2 0.8 0.6 1.5 0.4 0.7 1 1.2 0.7 0.5 1.4 0.8 0.8 0.3 1.6 0.3z"/>
		<path id="Layer" class="s2" d="m64.9 369.8h58.6q0.6 0 1-0.2 0.5-0.2 0.9-0.5 0.4-0.4 0.6-0.8 0.2-0.5 0.3-1l1.2-10.6q0.1-0.6-0.1-1.2-0.2-0.5-0.6-1-0.4-0.4-0.9-0.7-0.6-0.2-1.2-0.2h-61q-0.6 0-1.2 0.2-0.5 0.3-0.9 0.7-0.4 0.5-0.6 1-0.2 0.6-0.1 1.2l1.2 10.6q0.1 0.5 0.3 1 0.2 0.4 0.6 0.8 0.4 0.3 0.9 0.5 0.4 0.2 1 0.2z"/>
		<path id="Layer" class="s6" d="m142.6 317.6h35.2v64.8h-35.2z"/>
		<path id="Layer" class="s1" d="m267.6 382.4h-117.9l-12.4-87.9h117.9l12.4 87.9z"/>
		<path id="Layer" class="s2" d="m284.8 382.4h-130.4l-12.4-87.9h130.4l12.4 87.9z"/>
		<path id="Layer" class="s4" d="m167.1 368.7l-10.4-60.5h102.9l10.5 60.5h-103z"/>
		<path id="Layer" class="s3" d="m211.4 368.7l-35-60.5h10.9l35 60.5h-10.9z"/>
		<path id="Layer" class="s3" d="m227 368.7l-35-60.5h18.7l35 60.5h-18.7z"/>
	</g>
	<g id="freepik--Shadow--inject-17">
		<path id="freepik--path--inject-17" class="s7" d="m250 427.6c-107.2 0-193.9-5.1-193.9-11.4 0-6.2 86.7-11.3 193.9-11.3 107.2 0 193.9 5.1 193.9 11.3 0 6.3-86.7 11.4-193.9 11.4z"/>
	</g>
	<g id="freepik--Warning--inject-17">
		<path id="Layer" class="s8" d="m77.3 221.5q-0.1 0-0.2 0-0.1 0-0.1-0.1-0.1 0-0.1-0.1-0.1-0.1-0.1-0.2l-2.2-26.7q0 0 0-0.1 0.1-0.1 0.1-0.2 0.1 0 0.1-0.1 0.1 0 0.2 0 0.1 0 0.2 0 0 0 0.1 0.1 0.1 0.1 0.1 0.1 0.1 0.1 0.1 0.2l2.2 26.7q0 0.1 0 0.2-0.1 0-0.1 0.1-0.1 0.1-0.2 0.1 0 0-0.1 0z"/>
		<path id="Layer" class="s8" d="m78.6 237.4q-0.1 0-0.2 0 0-0.1-0.1-0.1-0.1-0.1-0.1-0.1 0-0.1 0-0.2l-0.7-8.1q0-0.1 0-0.1 0-0.1 0.1-0.2 0-0.1 0.1-0.1 0.1 0 0.2 0 0.1 0 0.1 0 0.1 0 0.2 0.1 0.1 0 0.1 0.1 0 0.1 0 0.1l0.7 8.1q0 0.1 0 0.2 0 0.1-0.1 0.1 0 0.1-0.1 0.1-0.1 0.1-0.2 0.1z"/>
		<path id="Layer" class="s4" d="m303.6 313.4h-206.5c-1.3-0.1-2.6-0.3-3.8-0.8-1.2-0.5-2.3-1.2-3.2-2-1-0.9-1.8-2-2.3-3.1-0.6-1.2-1-2.4-1.1-3.7l-11.6-139.8c-0.1-1.2 0-2.5 0.4-3.6 0.4-1.2 1-2.3 1.8-3.2 0.9-0.9 1.9-1.6 3-2.1 1.1-0.5 2.3-0.7 3.6-0.7h206.4c1.3 0 2.6 0.3 3.8 0.8 1.2 0.5 2.3 1.2 3.2 2 1 0.9 1.8 2 2.3 3.1 0.6 1.2 1 2.4 1.1 3.7l11.6 139.8c0.2 1.2 0 2.4-0.4 3.6-0.3 1.2-1 2.2-1.8 3.1-0.8 0.9-1.8 1.7-3 2.2-1.1 0.4-2.3 0.7-3.5 0.7z"/>
		<path id="Layer" fill-rule="evenodd" class="s8" d="m303.6 313.8h-206.5c-1.4-0.1-2.7-0.3-3.9-0.8-1.3-0.5-2.4-1.2-3.4-2.1-1-1-1.8-2-2.4-3.2-0.6-1.2-1-2.5-1.1-3.9l-11.6-139.8q-0.1-0.9 0-1.9 0.1-0.9 0.4-1.8 0.3-0.9 0.8-1.8 0.5-0.8 1.1-1.5 0.7-0.7 1.5-1.3 0.8-0.5 1.6-0.9 0.9-0.4 1.9-0.6 0.9-0.2 1.9-0.2h206.4c1.4 0 2.7 0.3 4 0.8 1.2 0.5 2.3 1.2 3.3 2.1 1 0.9 1.8 2 2.4 3.2 0.6 1.3 1 2.6 1.1 3.9l11.6 139.8c0.2 1.2 0 2.5-0.4 3.7-0.4 1.3-1 2.4-1.9 3.3-0.9 1-1.9 1.7-3.1 2.2-1.2 0.5-2.5 0.8-3.7 0.8zm-219.7-159c-1.2 0-2.4 0.3-3.5 0.7-1 0.5-2 1.2-2.8 2-0.8 0.9-1.4 1.9-1.8 3-0.3 1.2-0.5 2.3-0.3 3.5l11.6 139.8q0.2 1.8 1 3.5 0.9 1.7 2.2 3 1.4 1.2 3.2 1.9 1.7 0.7 3.6 0.8h206.5c1.1 0 2.3-0.2 3.4-0.7 1-0.5 2-1.2 2.8-2 0.8-0.9 1.4-1.9 1.8-3 0.3-1.1 0.5-2.3 0.3-3.5l-11.6-139.8q-0.2-1.8-1-3.5-0.9-1.7-2.2-3-1.4-1.2-3.2-1.9-1.7-0.7-3.6-0.8z"/>
		<path id="Layer" class="s8" d="m290.3 154.4h-206.4c-1.3 0-2.5 0.3-3.6 0.7-1.1 0.5-2.1 1.3-3 2.2-0.8 0.9-1.4 1.9-1.8 3.1-0.4 1.1-0.5 2.4-0.4 3.6h225.6c-0.1-1.3-0.5-2.5-1.1-3.7-0.5-1.1-1.3-2.2-2.3-3-0.9-0.9-2-1.6-3.2-2.1-1.2-0.5-2.5-0.7-3.8-0.8z"/>
		<path id="Layer" class="s4" d="m88.7 159.2q0 0.4-0.1 0.8-0.1 0.4-0.4 0.7-0.3 0.3-0.6 0.4-0.4 0.2-0.8 0.2-0.4 0-0.8-0.2-0.4-0.1-0.7-0.4-0.3-0.3-0.5-0.7-0.2-0.4-0.2-0.8-0.1-0.4 0-0.8 0.2-0.3 0.4-0.6 0.3-0.3 0.7-0.5 0.3-0.1 0.7-0.1 0.5 0 0.9 0.1 0.4 0.2 0.7 0.5 0.3 0.3 0.5 0.6 0.2 0.4 0.2 0.8z"/>
		<path id="Layer" class="s4" d="m97.1 159.2q0 0.4-0.1 0.8-0.1 0.4-0.4 0.7-0.3 0.3-0.6 0.4-0.4 0.2-0.8 0.2-0.4 0-0.8-0.2-0.4-0.1-0.7-0.4-0.3-0.3-0.5-0.7-0.2-0.4-0.2-0.8 0-0.4 0.1-0.8 0.1-0.3 0.4-0.6 0.3-0.3 0.6-0.5 0.4-0.1 0.8-0.1 0.4 0 0.8 0.1 0.4 0.2 0.7 0.5 0.3 0.3 0.5 0.6 0.2 0.4 0.2 0.8z"/>
		<path id="Layer" class="s4" d="m105.5 159.2q0 0.4-0.1 0.8-0.1 0.4-0.4 0.7-0.3 0.3-0.6 0.4-0.4 0.2-0.8 0.2-0.4 0-0.8-0.2-0.4-0.1-0.7-0.4-0.3-0.3-0.5-0.7-0.2-0.4-0.2-0.8-0.1-0.4 0-0.8 0.2-0.3 0.4-0.6 0.3-0.3 0.7-0.5 0.3-0.1 0.8-0.1 0.4 0 0.8 0.1 0.4 0.2 0.7 0.5 0.3 0.3 0.5 0.6 0.2 0.4 0.2 0.8z"/>
		<path id="Layer" class="s2" d="m285.6 295.1l-173.6-0.1q-1.6 0-3-0.6-1.4-0.5-2.6-1.6-1.1-1-1.8-2.4-0.7-1.4-0.9-3l-8.1-97.4c-0.1-1 0-2 0.3-2.9 0.3-0.9 0.8-1.8 1.5-2.5 0.6-0.7 1.4-1.3 2.3-1.7 0.9-0.3 1.9-0.5 2.9-0.5h173.7q1.5 0 3 0.6 1.4 0.6 2.5 1.6 1.2 1.1 1.9 2.5 0.7 1.4 0.8 2.9l8.1 97.5c0.1 1 0 1.9-0.3 2.8-0.3 1-0.8 1.8-1.5 2.5-0.6 0.7-1.4 1.3-2.3 1.7-0.9 0.4-1.9 0.6-2.9 0.5z"/>
		<path id="Layer" class="s9" d="m231.9 199.4l-53.8 64.8c-1.7 2-2.8 4.5-3.3 7.1-0.5 2.6-0.3 5.2 0.6 7.7 0.9 2.5 2.4 4.8 4.3 6.5 2 1.8 4.4 3 7 3.6l87.3 18.8c2.7 0.6 5.6 0.5 8.2-0.4 2.7-0.9 5-2.5 6.8-4.7 1.8-2.1 3-4.7 3.5-7.4 0.4-2.8 0.1-5.6-0.9-8.2l-33.5-83.7c-1-2.5-2.6-4.6-4.7-6.3-2.1-1.7-4.6-2.8-7.2-3.2-2.7-0.4-5.4-0.1-7.9 0.8-2.5 1-4.7 2.6-6.4 4.6z"/>
		<path id="Layer" class="s9" d="m112.2 208.5l-18.8 50.5c-0.5 1.5-0.7 3.2-0.4 4.8 0.2 1.6 0.9 3.2 1.9 4.5 1 1.3 2.3 2.3 3.8 2.9 1.5 0.7 3.1 1 4.8 0.8l54.7-5.4c1.8-0.1 3.4-0.8 4.8-1.8 1.4-1.1 2.5-2.4 3.2-4.1 0.7-1.6 0.9-3.3 0.7-5.1-0.2-1.7-0.9-3.3-2-4.7l-36-45.1c-1.1-1.4-2.5-2.4-4.1-3-1.6-0.6-3.4-0.8-5.1-0.5-1.7 0.2-3.3 1-4.6 2.1-1.3 1.1-2.3 2.5-2.9 4.1z"/>
		<path id="Layer" class="s8" d="m250.5 183.1l-50.3 73c-1.6 2.3-2.6 4.9-2.8 7.7-0.3 2.7 0.2 5.5 1.3 8 1.1 2.6 2.9 4.8 5.1 6.4 2.2 1.7 4.8 2.8 7.6 3.1l92.4 12.3c2.9 0.4 5.9 0 8.6-1.2 2.7-1.1 5-3 6.7-5.4 1.7-2.4 2.8-5.2 3-8.1 0.2-2.9-0.3-5.9-1.6-8.5l-42.2-85.3c-1.2-2.5-3.1-4.7-5.5-6.3-2.3-1.5-5-2.5-7.8-2.7-2.8-0.2-5.7 0.4-8.2 1.6-2.5 1.2-4.7 3.1-6.3 5.4z"/>
		<path id="Layer" class="s4" d="m213.6 274.8q-1.3-0.2-2.5-0.6-1.1-0.5-2.2-1.3-1-0.7-1.8-1.7-0.8-0.9-1.3-2.1-0.6-1-0.9-2.2-0.2-1.2-0.2-2.4 0.1-1.2 0.5-2.4 0.3-1.2 1-2.2l50.4-73.2q0.7-1 1.7-1.7 0.9-0.8 2-1.2 1.1-0.5 2.3-0.7 1.2-0.1 2.3 0.1 1.3 0.2 2.5 0.6 1.1 0.5 2.2 1.2 1 0.8 1.8 1.8 0.8 0.9 1.4 2.1l42.2 85.5q0.6 1.1 0.8 2.3 0.3 1.2 0.2 2.4 0 1.2-0.4 2.3-0.4 1.2-1.1 2.2-0.7 1-1.6 1.7-0.9 0.8-2 1.3-1.1 0.4-2.3 0.6-1.2 0.1-2.4-0.1z"/>
		<path id="Layer" class="s8" d="m260.6 209.1l5.9 0.8q1.4 0.1 2.6 0.8 1.3 0.7 2.2 1.8 0.9 1 1.3 2.3 0.5 1.4 0.4 2.7l-0.4 7.7q0 0.1 0 0.2 0 0.1 0 0.2 0 0.2 0 0.3 0 0.1 0 0.2l-4.2 23.1q-0.3 1.2-0.9 2.2-0.7 1.1-1.7 1.8-1 0.7-2.2 0.9-1.1 0.3-2.3 0.1-1.3-0.2-2.5-0.8-1.1-0.6-2-1.5-0.9-0.9-1.4-2.1-0.5-1.2-0.7-2.5l-1.6-23.9q0-0.1-0.1-0.2 0-0.1 0-0.2 0-0.1 0-0.2 0.1-0.1 0.1-0.2l0.3-7.7q0.1-1.3 0.7-2.5 0.6-1.2 1.6-2 1.1-0.9 2.4-1.2 1.2-0.3 2.5-0.1zm-0.4 51.5l1.6 0.2q1.2 0.2 2.3 0.8 1.1 0.6 1.9 1.6 0.8 0.9 1.2 2.1 0.4 1.2 0.4 2.4 0 1.2-0.6 2.3-0.5 1-1.4 1.8-1 0.8-2.1 1.1-1.2 0.3-2.3 0.1l-1.6-0.2q-1.3-0.2-2.4-0.8-1.1-0.6-1.9-1.6-0.8-0.9-1.2-2.1-0.4-1.2-0.4-2.4 0.1-1.2 0.6-2.3 0.6-1 1.5-1.8 0.9-0.7 2.1-1.1 1.1-0.3 2.3-0.1z"/>
		<path id="Layer" class="s8" d="m131.5 194.3l-13.8 52.3c-0.4 1.6-0.4 3.3 0 4.9 0.4 1.6 1.2 3 2.3 4.2 1.1 1.2 2.5 2.1 4.1 2.6 1.6 0.5 3.2 0.6 4.9 0.3l53.5-10.4c1.7-0.4 3.3-1.1 4.6-2.3 1.3-1.2 2.3-2.6 2.8-4.3 0.5-1.6 0.6-3.4 0.2-5.1-0.4-1.7-1.2-3.2-2.4-4.5l-39.7-41.9c-1.2-1.3-2.7-2.2-4.4-2.7-1.6-0.5-3.4-0.5-5.1-0.1-1.7 0.4-3.2 1.3-4.4 2.5-1.3 1.2-2.2 2.8-2.6 4.5z"/>
		<path id="Layer" class="s4" d="m128.8 254.4q-0.7 0.1-1.4 0.1-0.8-0.1-1.5-0.3-0.7-0.2-1.3-0.7-0.7-0.4-1.2-0.9-0.5-0.5-0.9-1.2-0.3-0.6-0.5-1.4-0.2-0.7-0.2-1.4 0-0.8 0.1-1.5l13.9-52.5q0.2-0.7 0.5-1.3 0.4-0.6 0.9-1.1 0.5-0.5 1.2-0.8 0.6-0.3 1.3-0.4 0.7-0.2 1.5-0.1 0.7 0 1.4 0.3 0.7 0.2 1.4 0.6 0.6 0.4 1.1 1l39.9 42q0.5 0.5 0.9 1.2 0.3 0.6 0.5 1.3 0.2 0.7 0.2 1.5 0.1 0.7-0.1 1.5-0.2 0.6-0.6 1.3-0.3 0.6-0.9 1-0.5 0.5-1.1 0.9-0.6 0.3-1.3 0.4z"/>
		<path id="Layer" class="s8" d="m142.3 206.9l3.4-0.6q0.8-0.2 1.6 0 0.9 0.2 1.6 0.6 0.7 0.5 1.2 1.1 0.5 0.7 0.7 1.5l1.2 4.6q0 0.1 0 0.1 0 0.1 0.1 0.2 0 0 0 0.1 0 0 0 0.1l2.2 14.4q0.1 0.7-0.1 1.4-0.1 0.8-0.5 1.4-0.5 0.6-1.1 1-0.6 0.4-1.3 0.5-0.8 0.1-1.5 0-0.8-0.1-1.5-0.5-0.6-0.4-1.1-1-0.6-0.6-0.8-1.3l-5.6-13.7q0 0 0-0.1-0.1 0-0.1-0.1 0-0.1 0-0.1 0-0.1-0.1-0.1l-1.2-4.6q-0.3-0.8-0.2-1.6 0.1-0.8 0.5-1.5 0.5-0.7 1.1-1.2 0.7-0.4 1.5-0.6zm9.6 30.3l1-0.2q0.7-0.1 1.4 0.1 0.8 0.1 1.4 0.5 0.6 0.4 1.1 1 0.4 0.6 0.6 1.4v-0.1q0.2 0.7 0.2 1.4-0.1 0.8-0.5 1.4-0.4 0.6-1 1-0.5 0.4-1.2 0.5l-1 0.2q-0.7 0.2-1.4 0-0.8-0.1-1.4-0.5-0.6-0.4-1.1-1.1-0.4-0.6-0.6-1.3-0.2-0.7-0.2-1.4 0.1-0.7 0.5-1.3 0.4-0.6 1-1 0.5-0.4 1.2-0.6z"/>
	</g>
	<g id="freepik--Character--inject-17">
		<path id="Layer" class="s10" d="m388.4 206l-7.8 2.5 6.2 7.4q0.7-0.6 1.3-1.2 0.6-0.6 1.2-1.3 0.6-0.7 1.1-1.4 0.5-0.7 1-1.4 0.2-0.4 0.3-0.9 0.1-0.5-0.1-1-0.1-0.4-0.4-0.8-0.3-0.4-0.7-0.7z"/>
		<path id="Layer" class="s10" d="m377 214.6l4.7 5.7 5.2-4.4-6.3-7.3-3.6 6z"/>
		<path id="Layer" class="s10" d="m390.9 145.7c1.9 5.2 3.6 10.4 5.3 15.7 1.6 5.2 3.1 10.5 4.5 16.1l0.4 2.1 0.2 1.1 0.2 0.6v0.1 0.2 0.4q0.1 0.7 0.1 1.4 0 0.8 0 1.5 0 0.7-0.1 1.4-0.1 0.7-0.3 1.4-0.2 1.1-0.5 2.3-0.3 1.1-0.7 2.2-0.3 1.1-0.8 2.1-0.4 1.1-0.8 2.1-0.9 2-1.9 3.9-1 1.9-2 3.8-1.1 1.8-2.3 3.6-1.2 1.8-2.4 3.5l-5.2-2.8c1.8-5 3.7-10.1 5-15.1q0.2-0.9 0.5-1.7 0.2-0.9 0.3-1.8 0.2-0.9 0.3-1.8 0.2-0.9 0.3-1.8 0-0.3 0-0.6 0-0.3 0-0.6 0-0.3 0-0.6-0.1-0.4-0.1-0.7l-0.5-1.5-0.5-1.9c-1.6-5-3.4-10.1-5.2-15.2-1.7-5.2-3.5-10.3-5.2-15.5z"/>
		<path id="Layer" class="s11" d="m347.7 114.7c0.1 0.7-0.1 1.2-0.5 1.4-0.4 0.1-0.8-0.4-1-1-0.2-0.7 0.1-1.3 0.5-1.4 0.4-0.1 0.9 0.4 1 1z"/>
		<path id="Layer" class="s12" d="m347.6 115.9q-0.1 0.8-0.3 1.6-0.1 0.8-0.4 1.5-0.2 0.8-0.5 1.5-0.2 0.8-0.6 1.5 0.4 0.2 0.8 0.2 0.4 0.1 0.8 0.1 0.4-0.1 0.8-0.2 0.3-0.1 0.7-0.3z"/>
		<path id="Layer" class="s11" d="m346 111q0 0-0.1 0 0 0-0.1 0 0-0.1 0-0.1-0.1 0-0.1-0.1-0.1 0-0.1-0.1 0-0.1 0-0.1 0-0.1 0.1-0.2 0 0 0.1-0.1 0.4-0.2 0.8-0.4 0.4-0.1 0.8-0.1 0.5-0.1 0.9 0 0.5 0.1 0.9 0.3 0 0 0.1 0 0 0.1 0.1 0.2 0 0 0 0.1 0 0.1 0 0.1-0.1 0.1-0.1 0.2-0.1 0-0.1 0.1-0.1 0-0.2 0-0.1 0-0.1 0-0.3-0.2-0.7-0.2-0.3-0.1-0.7-0.1-0.3 0-0.7 0.1-0.3 0.1-0.6 0.3 0 0 0 0.1-0.1 0-0.1 0 0 0 0 0-0.1 0-0.1 0z"/>
		<path id="Layer" class="s10" d="m369.1 116.7c0.7 7.3-0.3 14.3 1.3 20.6 0 0-1.8 5.9-12.5 5.9-11.8 0-5.4-5.9-5.4-5.9 6.5-1.5 6.5-6.3 5.5-10.8z"/>
		<path id="Layer" class="s11" d="m372.7 139.3c0.9-1.8 1.5-4.4-0.4-5.1-2.1-0.7-13.2-1-17.3 0.4q-0.8 0.2-1.5 0.7-0.6 0.5-1.1 1.2-0.4 0.7-0.5 1.6-0.2 0.8 0 1.6z"/>
		<path id="Layer" fill-rule="evenodd" class="s8" d="m396.4 402.8q-0.2 0-0.5 0-0.2 0-0.4 0-0.2 0-0.4-0.1-0.2-0.1-0.3-0.2-0.1-0.1-0.2-0.2-0.1-0.2-0.1-0.3-0.1-0.2-0.1-0.3 0-0.1 0-0.2 0-0.1 0-0.2 0.1 0 0.1-0.1 0.1-0.1 0.1-0.1c0.9-0.7 4 0.3 4.3 0.4q0 0 0.1 0 0 0 0 0.1 0 0 0 0 0 0 0 0.1 0 0 0 0 0 0.1 0 0.1 0 0 0 0-0.1 0.1-0.1 0.1-0.2 0.1-0.5 0.2-0.3 0.1-0.5 0.2-0.3 0.1-0.6 0.2-0.2 0.1-0.5 0.2-0.2 0.1-0.4 0.1zm1.9-1.1q0 0-0.1 0 0.1 0 0.1 0zm-0.1 0.1c-1.2-0.4-2.9-0.8-3.3-0.4q0 0 0 0-0.1 0-0.1 0.1 0 0 0 0 0 0.1 0 0.1 0 0.1 0.1 0.2 0 0.1 0.1 0.2 0 0.1 0.1 0.2 0.1 0 0.2 0.1c0.5 0.3 1.6 0.1 2.9-0.5z"/>
		<path id="Layer" fill-rule="evenodd" class="s8" d="m398.7 401.9c-0.9-0.2-3.1-1.7-3.1-2.7q0-0.1 0-0.2 0.1-0.1 0.1-0.2 0.1-0.1 0.2-0.1 0.1-0.1 0.2-0.1 0.1-0.1 0.2-0.1 0.2 0 0.3 0 0.1 0 0.2 0 0.1 0.1 0.2 0.1c1.2 0.6 2 2.9 2 3q0 0.1 0 0.1 0 0.1 0 0.1 0 0 0 0.1-0.1 0-0.1 0zm-2.5-3c-0.2 0.1-0.2 0.2-0.2 0.2 0 0.6 1.4 1.8 2.4 2.2q-0.1-0.3-0.2-0.7-0.2-0.3-0.4-0.6-0.2-0.3-0.5-0.6-0.2-0.3-0.5-0.5 0 0-0.1 0-0.1-0.1-0.1-0.1-0.1 0-0.2 0 0 0-0.1 0z"/>
		<path id="Layer" fill-rule="evenodd" class="s8" d="m341.7 408.8q-0.2 0-0.4-0.1-0.2 0-0.4-0.1-0.2-0.1-0.4-0.2-0.1-0.1-0.2-0.3-0.1-0.1-0.1-0.2-0.1-0.2-0.1-0.3 0-0.2 0-0.3 0-0.1 0-0.2 0-0.1 0.1-0.2 0 0 0.1-0.1 0.1-0.1 0.1-0.1c1-0.5 3.8 1.2 4.1 1.4q0 0 0 0.1 0.1 0 0.1 0 0 0 0 0.1 0 0 0 0 0 0.1 0 0.1 0 0-0.1 0 0 0 0 0.1 0 0-0.1 0-0.2 0.1-0.5 0.1-0.3 0.1-0.6 0.1-0.3 0-0.6 0.1-0.2 0-0.5 0-0.2 0-0.5 0zm-1.1-1.7c0 0-0.1 0-0.1 0.2q0 0.1 0 0.2 0 0.1 0 0.2 0.1 0.1 0.1 0.2 0.1 0.1 0.2 0.1c0.5 0.4 1.6 0.5 3 0.2-1.1-0.7-2.7-1.4-3.2-1.1z"/>
		<path id="Layer" fill-rule="evenodd" class="s8" d="m344.3 408.5c-0.9-0.5-2.6-2.3-2.5-3.3q0.1-0.2 0.1-0.3 0.1 0 0.2-0.1 0.1-0.1 0.2-0.1 0.1-0.1 0.2-0.1 0.1 0 0.2 0 0.2 0 0.3 0.1 0.1 0 0.2 0.1 0.1 0 0.2 0.1c1 0.8 1.2 3.3 1.2 3.4q0 0 0 0.1 0 0 0 0 0 0-0.1 0.1 0 0 0 0 0 0 0 0 0 0-0.1 0 0 0 0 0 0 0 0 0zm-1.8-3.5c-0.3 0-0.3 0.2-0.3 0.2-0.1 0.6 1 2 1.9 2.7q0-0.4-0.1-0.8-0.1-0.3-0.2-0.7-0.1-0.3-0.3-0.6-0.2-0.3-0.4-0.6 0-0.1-0.1-0.1-0.1 0-0.1-0.1-0.1 0-0.1 0-0.1 0-0.2 0z"/>
		<path id="Layer" class="s10" d="m353.7 408.2h-7.9l-0.1-18.3h7.9l0.1 18.3z"/>
		<path id="Layer" class="s10" d="m408.7 401.4l-7.6 1.4-5.5-18 7.6-1.4 5.5 18z"/>
		<path id="Layer" class="s11" d="m399.6 400.8l8.6-2q0.2 0 0.3 0 0.1 0 0.2 0 0.1 0.1 0.2 0.2 0.1 0.1 0.1 0.2l2.9 6.5q0.1 0.2 0.1 0.5 0 0.3-0.2 0.5-0.1 0.3-0.3 0.4-0.2 0.2-0.5 0.2c-3 0.7-4.5 0.9-8.3 1.8-2.3 0.5-7.1 1.9-10.3 2.7-3.3 0.7-4.3-2.4-3-3 5.6-2.8 7.5-5 9.1-7.2q0.1-0.2 0.2-0.3 0.1-0.1 0.3-0.2 0.1-0.1 0.3-0.2 0.1-0.1 0.3-0.1z"/>
		<path id="Layer" class="s11" d="m345.9 407.3h8.6q0.1 0 0.2 0 0.1 0 0.2 0.1 0.1 0.1 0.2 0.2 0 0.1 0 0.2l1.3 7q0.1 0.3 0 0.5-0.1 0.3-0.2 0.5-0.2 0.2-0.5 0.3-0.2 0.1-0.5 0.1c-3.1-0.1-7.6-0.2-11.5-0.2-4.5 0-6.2 0.2-11.5 0.2-3.3 0-4-3.3-2.7-3.6 6.3-1.3 9-1.5 14.4-4.7q0.3-0.2 0.5-0.3 0.2-0.1 0.5-0.2 0.2 0 0.5-0.1 0.2 0 0.5 0z"/>
		<path id="Layer" class="s8" d="m388 139.4c7.4 5.2 9.6 18.5 9.6 18.5l-16.7 8.5q-1-2-1.9-4-0.9-2.1-1.6-4.1-0.8-2.1-1.4-4.2-0.7-2.2-1.2-4.3c-1.8-7.9 8-14.1 13.2-10.4z"/>
		<path id="Layer" class="s13" d="m379.6 147.9l6.6 15.7-5.3 2.8q-0.6-1.3-1.2-2.6-0.6-1.2-1.1-2.5-0.6-1.3-1.1-2.6-0.5-1.3-0.9-2.6z"/>
		<path id="Layer" class="s8" d="m338.9 174c0.1 8.8 0.6 19.8 1.9 33.4h42.2c0.5-6.2-2.1-35.5 4.2-64.7q0.2-0.8 0-1.6-0.1-0.8-0.6-1.4-0.4-0.7-1.1-1.1-0.7-0.4-1.5-0.6-1.2-0.2-2.5-0.3-1.2-0.2-2.5-0.3-1.2-0.2-2.5-0.3-1.2-0.1-2.5-0.1-2.2-0.2-4.5-0.2-2.2-0.1-4.5-0.1-2.2 0-4.4 0.1-2.3 0-4.5 0.2-0.9 0-1.8 0.1-0.9 0.1-1.8 0.3-0.9 0.1-1.8 0.2-0.9 0.2-1.8 0.4-1.3 0.2-2.5 0.9-1.2 0.6-2.2 1.5-1 1-1.7 2.1-0.7 1.2-1 2.5-0.5 2-0.9 4.1-0.4 2-0.7 4.1-0.3 2-0.4 4.1-0.2 2.1-0.3 4.1c-0.2 3.7-0.3 7.8-0.3 12.6z"/>
		<path id="Layer" class="s13" d="m352.2 157.5c-2.8 2-8.1 3-13 3.4q0.1-2 0.3-3.7 2-1 3.8-1.9z"/>
		<g id="Layer" style="opacity: .2">
			<path id="Layer" class="s14" d="m345.7 389.9v10.2h7.9v-10.2h-7.9z"/>
			<path id="Layer" class="s14" d="m403.2 383.4l-7.6 1.4 2.8 9.3 7.6-1.4-2.8-9.3z"/>
		</g>
		<path id="Layer" class="s10" d="m368 108.2c1.1 7.8 2.2 12.3-0.8 17.2-0.9 1.6-2.3 2.9-3.9 3.7-1.7 0.9-3.5 1.3-5.4 1.2-1.8-0.1-3.6-0.7-5.2-1.7-1.5-1.1-2.7-2.5-3.5-4.2-3.1-6.5-4.4-18.1 2.3-23 1.5-1.1 3.2-1.8 5-2.1 1.8-0.2 3.6 0 5.2 0.7 1.7 0.7 3.2 1.9 4.3 3.3 1.1 1.4 1.8 3.1 2 4.9z"/>
		<path id="Layer" class="s11" d="m351.8 113.9c-2.9-1.3-2.6-5.9-1.7-7.8-3.4 1.1-8.3 1.8-9.2-1.7-0.9-3.4 2.1-4.5 0.3-7.5-1.8-2.9 4-6.1 6.7-2 2.7 4.2 9.4 2.3 13.8-1.6 3.1-2.9 7.8 0.8 5.9 4.6 0 0 9.5-0.6 7.6 5.8-1.8 6.5-4.5 6.7-3.9 11.3 0.4 3.1 0.8 9.4-2.9 10.3-4.5 1-15.8-3-16.6-11.4z"/>
		<path id="Layer" class="s13" d="m351.8 122.3q-1.3 0.9-2.7 2l0.1 0.1q0.3 0.7 0.7 1.4 0.5 0.6 1 1.2 0.5 0.6 1.1 1 0.6 0.5 1.3 0.9c0.5-0.5 0.8-2.4 1.9-2.3 3.2 0.1 9.3-1.3 10.3-4.9z"/>
		<path id="Layer" class="s10" d="m354.3 113.8q0 0.6 0 1.3 0 0.6-0.1 1.3-0.1 0.6-0.3 1.2-0.1 0.7-0.4 1.3c-0.9 1.8-2.3 0.6-2.9-1.6-0.5-2-0.6-5.4 0.7-6.4 1.3-1 2.7 0.6 2.9 2.9z"/>
		<path id="Layer" class="s8" d="m355.8 207.4c0 0 6.6 60.3 10.6 82.9 4.5 24.8 27.4 102.4 27.4 102.4l14.1-3c0 0-15.7-72.6-17.9-97.1-2.3-26.6-7-85.2-7-85.2z"/>
		<path id="Layer" class="s15" d="m355.8 207.4c0 0 6.6 60.3 10.6 82.9 4.5 24.8 27.4 102.4 27.4 102.4l14.1-3c0 0-15.7-72.6-17.9-97.1-2.2-25.3-2.2-25.3-7-85.2z"/>
		<path id="Layer" class="s11" d="m390.6 388c0 0 2.4 5.2 2.4 5.2l16-3.5-1.1-4.8z"/>
		<path id="Layer" class="s13" d="m360.6 228.9c10.3 2 7.7 40.7 5.7 60.5-2.5-14-5.8-41-8-60.2q0.2-0.2 0.5-0.2 0.3-0.1 0.6-0.2 0.3 0 0.6 0 0.3 0 0.6 0.1z"/>
		<path id="Layer" class="s8" d="m340.8 207.4c0 0-3.4 59-3.4 83.1-0.1 25 5.5 107 5.5 107h13.3c0 0 3.6-80.5 5.2-105.1 1.7-26.8 7.1-85 7.1-85z"/>
		<path id="Layer" class="s15" d="m340.8 207.4c0 0-3.4 59-3.4 83.1-0.1 25 5.5 107 5.5 107h13.3c0 0 3.6-80.5 5.2-105.1 1.7-26.8 7.1-85 7.1-85z"/>
		<path id="Layer" class="s11" d="m340.5 392.2c-0.1 0 0.5 5.5 0.5 5.5h16.3l0.6-5z"/>
		<path id="Layer" class="s10" d="m357.5 151.7c-1.6 0.2-2.9 0.3-4.4 0.3-1.5 0.1-2.9 0.1-4.3 0.1q-4.3 0-8.7-0.5-1.1-0.1-2.2-0.3-1.1-0.1-2.2-0.3-1-0.2-2.1-0.4-1.1-0.3-2.2-0.5-1.1-0.3-2.3-0.6-1.1-0.3-2.2-0.7-1.1-0.4-2.2-0.9-1.1-0.4-2.1-0.9l-0.4-0.2q-0.9-0.5-1.6-1.3-0.7-0.7-1-1.7-0.3-1-0.3-2 0.1-1.1 0.6-2 0-0.1 0.1-0.2 0-0.1 0.1-0.2 0.1-0.1 0.1-0.2 0.1-0.1 0.2-0.2 0.4-0.6 0.9-1.2 0.5-0.6 1-1.1 0.5-0.5 1-1.1 0.5-0.5 1.1-1c1.4-1.2 2.7-2.2 4.1-3.2 2.7-2.1 5.5-3.9 8.3-5.7 2.8-1.7 5.6-3.4 8.5-5 2.8-1.6 5.7-3 8.7-4.4 0.7-0.3 1.4-0.3 2.1-0.1 0.7 0.2 1.2 0.7 1.6 1.3 0.4 0.6 0.5 1.3 0.4 2-0.1 0.7-0.5 1.4-1 1.8-2.5 2-5.1 3.9-7.6 5.8-2.5 2-5 3.9-7.5 5.9-2.5 2-4.9 4-7.1 6-1.2 1-2.3 2-3.2 3.1q-0.3 0.3-0.7 0.7-0.3 0.3-0.6 0.7-0.3 0.3-0.5 0.7-0.3 0.4-0.6 0.8l-2.2-8q0.8 0.3 1.7 0.5 0.8 0.3 1.6 0.5 0.9 0.3 1.7 0.4 0.9 0.2 1.7 0.4 0.9 0.1 1.9 0.3 0.9 0.1 1.8 0.2 1 0.1 1.9 0.2 0.9 0.1 1.8 0.1 3.8 0.3 7.7 0.3 1.9 0 3.9 0c1.2 0 2.6-0.1 3.7-0.2h0.1c1.6 0 3 0.6 4.1 1.6 1.1 1 1.8 2.5 1.9 4 0.1 1.5-0.3 3-1.3 4.1-0.9 1.2-2.2 2-3.7 2.3z"/>
		<path id="Layer" class="s10" d="m363.1 114.7l-5 1.1c0 0-6.7-0.8-8.2 4.2l4 3.4 6.1 1q0.4 0.1 0.7 0.1 0.4 0 0.8-0.1 0.3 0 0.7-0.2 0.3-0.1 0.6-0.2l1.6-0.9q0.3-0.1 0.5-0.3 0.2-0.2 0.4-0.4 0.2-0.3 0.3-0.6 0.1-0.2 0.1-0.5l0.4-4q0-0.6-0.2-1.2-0.2-0.5-0.7-0.9-0.4-0.3-1-0.5-0.5-0.1-1.1 0z"/>
		<path id="Layer" class="s8" d="m353.4 157.6c-8.4 2.3-18-0.6-18-0.6l3.5-18.8c0 0 8.3-0.8 13.6-0.9 13.4-0.3 16 16.1 0.9 20.3z"/>
	</g>
</svg>