<svg xmlns="http://www.w3.org/2000/svg" width="39" height="33" viewBox="0 0 39 33" fill="none">
  <mask id="mask0_141_1257" style="mask-type:alpha" maskUnits="userSpaceOnUse" x="0" y="0" width="33" height="33">
    <circle cx="16.5" cy="16.5" r="15.5704" fill="#D9D9D9" stroke="url(#paint0_linear_141_1257)" stroke-width="1.85915"/>
  </mask>
  <g mask="url(#mask0_141_1257)">
    <path fill-rule="evenodd" clip-rule="evenodd" d="M28.5022 18.6072L25.4726 18.9172L23.5032 18.3696L24.7968 16.6552L25.8926 16.2475L29.4047 16.0327L26.7071 15.9445L30.6092 14.4928L25.1452 16.1934L27.1644 13.5807L24.7968 16.3015L23.3024 16.767L23.4637 14.8255L27.4519 12.6224L23.4999 14.3901L23.7233 11.7011L26.2028 8.92757L23.7233 11.391L23.1758 8.92757L23.5251 11.7011L23.164 14.5403L22.6685 14.7619L20.1081 14.0376L20.5984 10.5534L19.9774 14.0007L19.9131 14.3573L19.14 18.7493L18.0191 16.2971L19.0434 19.1849L17.2796 19.3719L18.5744 9.09719L21.5279 7.88739L18.5744 8.67289L17.6729 5.81366L18.3231 9.09719L17.8025 12.4456L17.6846 12.5014L16.1799 13.2129L15.2196 10.8211L15.8247 12.826L15.9059 13.095L15.9716 13.3126L15.0858 17.0639L12.7933 12.1145L12.7601 12.043L12.7913 11.9679L14.3463 8.22659L12.8913 10.6834L10.4226 9.09719L12.7253 11.0064L12.3142 11.8329L8.25034 10.6834L12.2235 12.043L14.9307 18.3758L14.9323 19.3417L10.4226 15.2822L14.5126 19.6651L13.5559 19.7665L9.09077 17.042L9.39505 12.5498L8.8598 16.8962L7.65757 16.1554L7.45277 13.6717V16.03L4.47892 14.2093L8.66968 17.0128L5.16263 18.3758L8.8105 17.2827L8.49366 20.3029L7.64244 20.3931L5.16263 18.3758L7.45277 20.4132L3.43262 20.8393L7.56781 20.5156L9.62076 22.3421L4.79376 23.7071L9.42662 22.5949L7.80623 24.3472L9.89388 22.585L14.9348 27.2975L14.8547 30.809L11.469 33.3888L9.09729 33.8881L11.469 33.5552L15.3803 31.0171L14.9642 31.4331L11.469 33.8465L9.09729 34.2626L11.469 33.9713L14.881 31.7244L14.5897 32.0989L11.469 34.221L9.09729 34.5955L11.469 34.3874L14.4233 32.3902L13.9656 33.0143L11.469 34.5955L9.09729 34.7203H11.469L14.0488 33.1391L15.63 31.1003V32.2237L10.6784 36.0102L15.9212 32.2653L16.1293 31.0171L16.2957 32.1405L14.8394 34.221L12.4676 35.927L15.089 34.3458L16.2957 32.515L17.1279 34.0961L19.8741 35.927L17.3775 33.9713L16.4621 32.3902L16.587 32.0989L16.4205 31.0171L17.0031 32.1821L20.3318 34.221L22.2042 34.2626L20.3318 34.0961L17.1279 32.0989L16.8782 31.5996L20.3318 33.8881L22.2042 34.0961L20.3318 33.7633L16.8782 31.4331L16.7164 31.0171V30.809L16.6685 27.2975L21.6399 20.4813L22.6685 20.1572L25.994 21.3409L23.1758 20.0445L25.5713 19.2977L28.5867 21.1154L25.994 19.1849L28.8545 18.9172L31.4613 19.0158L28.8545 18.6072L29.5872 16.1554L28.5022 18.6072ZM21.344 20.1572L16.373 26.2695V25.3406L18.9005 22.6183L19.322 19.6235L21.4465 19.9376L21.344 20.1572ZM24.3696 16.7918L23.1168 17.2802L22.5477 18.5196L23.0588 18.4091L24.3696 16.7918ZM25.0992 19.0294L22.3919 19.8425L23.2506 18.7044L25.0992 19.0294ZM19.3837 19.1849L22.0606 18.622L22.8636 16.9018L23.1023 15.0251L19.705 16.9018L19.3837 19.1849ZM20.1455 19.3719L21.6096 19.5881L21.9027 18.9604L20.1455 19.3719ZM22.7382 18.7958L22.3875 18.8683L21.9767 19.6951L22.7382 18.7958ZM15.4197 18.1134L16.2705 13.4847L17.774 12.6289L16.7164 19.4315L15.5087 19.5595L15.4197 18.1134ZM19.8273 16.0327L22.0606 15.0338L20.0567 14.4026L19.8273 16.0327ZM18.4534 22.4602L18.9644 19.6235L17.2308 19.7592L16.6685 24.2206L18.4534 22.4602ZM15.5292 19.8924L15.8457 25.0321L16.6585 19.804L15.5292 19.8924ZM14.9348 20.8393L14.9333 19.939L9.09405 20.3961L11.1858 21.8995L14.9348 20.8393ZM14.9405 24.5979L14.9355 21.2725L11.4708 22.1042L14.9405 24.5979ZM14.9439 26.3331L14.9427 25.5871L10.8685 22.2488L10.1388 22.424L14.9439 26.3331ZM7.77319 20.4995L9.93043 22.2545L10.633 22.0558L8.64983 20.4309L7.77319 20.4995ZM8.90389 20.2595L12.8913 19.8369L9.0762 17.2827L8.90389 20.2595Z" fill="#FF8744"/>
    <path fill-rule="evenodd" clip-rule="evenodd" d="M28.5022 18.6072L25.4726 18.9172L23.5032 18.3696L24.7968 16.6552L25.8926 16.2475L29.4047 16.0327L26.7071 15.9445L30.6092 14.4928L25.1452 16.1934L27.1644 13.5807L24.7968 16.3015L23.3024 16.767L23.4637 14.8255L27.4519 12.6224L23.4999 14.3901L23.7233 11.7011L26.2028 8.92757L23.7233 11.391L23.1758 8.92757L23.5251 11.7011L23.164 14.5403L22.6685 14.7619L20.1081 14.0376L20.5984 10.5534L19.9774 14.0007L19.9131 14.3573L19.14 18.7493L18.0191 16.2971L19.0434 19.1849L17.2796 19.3719L18.5744 9.09719L21.5279 7.88739L18.5744 8.67289L17.6729 5.81366L18.3231 9.09719L17.8025 12.4456L17.6846 12.5014L16.1799 13.2129L15.2196 10.8211L15.8247 12.826L15.9059 13.095L15.9716 13.3126L15.0858 17.0639L12.7933 12.1145L12.7601 12.043L12.7913 11.9679L14.3463 8.22659L12.8913 10.6834L10.4226 9.09719L12.7253 11.0064L12.3142 11.8329L8.25034 10.6834L12.2235 12.043L14.9307 18.3758L14.9323 19.3417L10.4226 15.2822L14.5126 19.6651L13.5559 19.7665L9.09077 17.042L9.39505 12.5498L8.8598 16.8962L7.65757 16.1554L7.45277 13.6717V16.03L4.47892 14.2093L8.66968 17.0128L5.16263 18.3758L8.8105 17.2827L8.49366 20.3029L7.64244 20.3931L5.16263 18.3758L7.45277 20.4132L3.43262 20.8393L7.56781 20.5156L9.62076 22.3421L4.79376 23.7071L9.42662 22.5949L7.80623 24.3472L9.89388 22.585L14.9348 27.2975L14.8547 30.809L11.469 33.3888L9.09729 33.8881L11.469 33.5552L15.3803 31.0171L14.9642 31.4331L11.469 33.8465L9.09729 34.2626L11.469 33.9713L14.881 31.7244L14.5897 32.0989L11.469 34.221L9.09729 34.5955L11.469 34.3874L14.4233 32.3902L13.9656 33.0143L11.469 34.5955L9.09729 34.7203H11.469L14.0488 33.1391L15.63 31.1003V32.2237L10.6784 36.0102L15.9212 32.2653L16.1293 31.0171L16.2957 32.1405L14.8394 34.221L12.4676 35.927L15.089 34.3458L16.2957 32.515L17.1279 34.0961L19.8741 35.927L17.3775 33.9713L16.4621 32.3902L16.587 32.0989L16.4205 31.0171L17.0031 32.1821L20.3318 34.221L22.2042 34.2626L20.3318 34.0961L17.1279 32.0989L16.8782 31.5996L20.3318 33.8881L22.2042 34.0961L20.3318 33.7633L16.8782 31.4331L16.7164 31.0171V30.809L16.6685 27.2975L21.6399 20.4813L22.6685 20.1572L25.994 21.3409L23.1758 20.0445L25.5713 19.2977L28.5867 21.1154L25.994 19.1849L28.8545 18.9172L31.4613 19.0158L28.8545 18.6072L29.5872 16.1554L28.5022 18.6072ZM21.344 20.1572L16.373 26.2695V25.3406L18.9005 22.6183L19.322 19.6235L21.4465 19.9376L21.344 20.1572ZM24.3696 16.7918L23.1168 17.2802L22.5477 18.5196L23.0588 18.4091L24.3696 16.7918ZM25.0992 19.0294L22.3919 19.8425L23.2506 18.7044L25.0992 19.0294ZM19.3837 19.1849L22.0606 18.622L22.8636 16.9018L23.1023 15.0251L19.705 16.9018L19.3837 19.1849ZM20.1455 19.3719L21.6096 19.5881L21.9027 18.9604L20.1455 19.3719ZM22.7382 18.7958L22.3875 18.8683L21.9767 19.6951L22.7382 18.7958ZM15.4197 18.1134L16.2705 13.4847L17.774 12.6289L16.7164 19.4315L15.5087 19.5595L15.4197 18.1134ZM19.8273 16.0327L22.0606 15.0338L20.0567 14.4026L19.8273 16.0327ZM18.4534 22.4602L18.9644 19.6235L17.2308 19.7592L16.6685 24.2206L18.4534 22.4602ZM15.5292 19.8924L15.8457 25.0321L16.6585 19.804L15.5292 19.8924ZM14.9348 20.8393L14.9333 19.939L9.09405 20.3961L11.1858 21.8995L14.9348 20.8393ZM14.9405 24.5979L14.9355 21.2725L11.4708 22.1042L14.9405 24.5979ZM14.9439 26.3331L14.9427 25.5871L10.8685 22.2488L10.1388 22.424L14.9439 26.3331ZM7.77319 20.4995L9.93043 22.2545L10.633 22.0558L8.64983 20.4309L7.77319 20.4995ZM8.90389 20.2595L12.8913 19.8369L9.0762 17.2827L8.90389 20.2595Z" fill="url(#paint1_diamond_141_1257)"/>
    <path fill-rule="evenodd" clip-rule="evenodd" d="M28.5022 18.6072L25.4726 18.9172L23.5032 18.3696L24.7968 16.6552L25.8926 16.2475L29.4047 16.0327L26.7071 15.9445L30.6092 14.4928L25.1452 16.1934L27.1644 13.5807L24.7968 16.3015L23.3024 16.767L23.4637 14.8255L27.4519 12.6224L23.4999 14.3901L23.7233 11.7011L26.2028 8.92757L23.7233 11.391L23.1758 8.92757L23.5251 11.7011L23.164 14.5403L22.6685 14.7619L20.1081 14.0376L20.5984 10.5534L19.9774 14.0007L19.9131 14.3573L19.14 18.7493L18.0191 16.2971L19.0434 19.1849L17.2796 19.3719L18.5744 9.09719L21.5279 7.88739L18.5744 8.67289L17.6729 5.81366L18.3231 9.09719L17.8025 12.4456L17.6846 12.5014L16.1799 13.2129L15.2196 10.8211L15.8247 12.826L15.9059 13.095L15.9716 13.3126L15.0858 17.0639L12.7933 12.1145L12.7601 12.043L12.7913 11.9679L14.3463 8.22659L12.8913 10.6834L10.4226 9.09719L12.7253 11.0064L12.3142 11.8329L8.25034 10.6834L12.2235 12.043L14.9307 18.3758L14.9323 19.3417L10.4226 15.2822L14.5126 19.6651L13.5559 19.7665L9.09077 17.042L9.39505 12.5498L8.8598 16.8962L7.65757 16.1554L7.45277 13.6717V16.03L4.47892 14.2093L8.66968 17.0128L5.16263 18.3758L8.8105 17.2827L8.49366 20.3029L7.64244 20.3931L5.16263 18.3758L7.45277 20.4132L3.43262 20.8393L7.56781 20.5156L9.62076 22.3421L4.79376 23.7071L9.42662 22.5949L7.80623 24.3472L9.89388 22.585L14.9348 27.2975L14.8547 30.809L11.469 33.3888L9.09729 33.8881L11.469 33.5552L15.3803 31.0171L14.9642 31.4331L11.469 33.8465L9.09729 34.2626L11.469 33.9713L14.881 31.7244L14.5897 32.0989L11.469 34.221L9.09729 34.5955L11.469 34.3874L14.4233 32.3902L13.9656 33.0143L11.469 34.5955L9.09729 34.7203H11.469L14.0488 33.1391L15.63 31.1003V32.2237L10.6784 36.0102L15.9212 32.2653L16.1293 31.0171L16.2957 32.1405L14.8394 34.221L12.4676 35.927L15.089 34.3458L16.2957 32.515L17.1279 34.0961L19.8741 35.927L17.3775 33.9713L16.4621 32.3902L16.587 32.0989L16.4205 31.0171L17.0031 32.1821L20.3318 34.221L22.2042 34.2626L20.3318 34.0961L17.1279 32.0989L16.8782 31.5996L20.3318 33.8881L22.2042 34.0961L20.3318 33.7633L16.8782 31.4331L16.7164 31.0171V30.809L16.6685 27.2975L21.6399 20.4813L22.6685 20.1572L25.994 21.3409L23.1758 20.0445L25.5713 19.2977L28.5867 21.1154L25.994 19.1849L28.8545 18.9172L31.4613 19.0158L28.8545 18.6072L29.5872 16.1554L28.5022 18.6072ZM21.344 20.1572L16.373 26.2695V25.3406L18.9005 22.6183L19.322 19.6235L21.4465 19.9376L21.344 20.1572ZM24.3696 16.7918L23.1168 17.2802L22.5477 18.5196L23.0588 18.4091L24.3696 16.7918ZM25.0992 19.0294L22.3919 19.8425L23.2506 18.7044L25.0992 19.0294ZM19.3837 19.1849L22.0606 18.622L22.8636 16.9018L23.1023 15.0251L19.705 16.9018L19.3837 19.1849ZM20.1455 19.3719L21.6096 19.5881L21.9027 18.9604L20.1455 19.3719ZM22.7382 18.7958L22.3875 18.8683L21.9767 19.6951L22.7382 18.7958ZM15.4197 18.1134L16.2705 13.4847L17.774 12.6289L16.7164 19.4315L15.5087 19.5595L15.4197 18.1134ZM19.8273 16.0327L22.0606 15.0338L20.0567 14.4026L19.8273 16.0327ZM18.4534 22.4602L18.9644 19.6235L17.2308 19.7592L16.6685 24.2206L18.4534 22.4602ZM15.5292 19.8924L15.8457 25.0321L16.6585 19.804L15.5292 19.8924ZM14.9348 20.8393L14.9333 19.939L9.09405 20.3961L11.1858 21.8995L14.9348 20.8393ZM14.9405 24.5979L14.9355 21.2725L11.4708 22.1042L14.9405 24.5979ZM14.9439 26.3331L14.9427 25.5871L10.8685 22.2488L10.1388 22.424L14.9439 26.3331ZM7.77319 20.4995L9.93043 22.2545L10.633 22.0558L8.64983 20.4309L7.77319 20.4995ZM8.90389 20.2595L12.8913 19.8369L9.0762 17.2827L8.90389 20.2595Z" fill="url(#paint2_linear_141_1257)"/>
    <path fill-rule="evenodd" clip-rule="evenodd" d="M28.5022 18.6072L25.4726 18.9172L23.5032 18.3696L24.7968 16.6552L25.8926 16.2475L29.4047 16.0327L26.7071 15.9445L30.6092 14.4928L25.1452 16.1934L27.1644 13.5807L24.7968 16.3015L23.3024 16.767L23.4637 14.8255L27.4519 12.6224L23.4999 14.3901L23.7233 11.7011L26.2028 8.92757L23.7233 11.391L23.1758 8.92757L23.5251 11.7011L23.164 14.5403L22.6685 14.7619L20.1081 14.0376L20.5984 10.5534L19.9774 14.0007L19.9131 14.3573L19.14 18.7493L18.0191 16.2971L19.0434 19.1849L17.2796 19.3719L18.5744 9.09719L21.5279 7.88739L18.5744 8.67289L17.6729 5.81366L18.3231 9.09719L17.8025 12.4456L17.6846 12.5014L16.1799 13.2129L15.2196 10.8211L15.8247 12.826L15.9059 13.095L15.9716 13.3126L15.0858 17.0639L12.7933 12.1145L12.7601 12.043L12.7913 11.9679L14.3463 8.22659L12.8913 10.6834L10.4226 9.09719L12.7253 11.0064L12.3142 11.8329L8.25034 10.6834L12.2235 12.043L14.9307 18.3758L14.9323 19.3417L10.4226 15.2822L14.5126 19.6651L13.5559 19.7665L9.09077 17.042L9.39505 12.5498L8.8598 16.8962L7.65757 16.1554L7.45277 13.6717V16.03L4.47892 14.2093L8.66968 17.0128L5.16263 18.3758L8.8105 17.2827L8.49366 20.3029L7.64244 20.3931L5.16263 18.3758L7.45277 20.4132L3.43262 20.8393L7.56781 20.5156L9.62076 22.3421L4.79376 23.7071L9.42662 22.5949L7.80623 24.3472L9.89388 22.585L14.9348 27.2975L14.8547 30.809L11.469 33.3888L9.09729 33.8881L11.469 33.5552L15.3803 31.0171L14.9642 31.4331L11.469 33.8465L9.09729 34.2626L11.469 33.9713L14.881 31.7244L14.5897 32.0989L11.469 34.221L9.09729 34.5955L11.469 34.3874L14.4233 32.3902L13.9656 33.0143L11.469 34.5955L9.09729 34.7203H11.469L14.0488 33.1391L15.63 31.1003V32.2237L10.6784 36.0102L15.9212 32.2653L16.1293 31.0171L16.2957 32.1405L14.8394 34.221L12.4676 35.927L15.089 34.3458L16.2957 32.515L17.1279 34.0961L19.8741 35.927L17.3775 33.9713L16.4621 32.3902L16.587 32.0989L16.4205 31.0171L17.0031 32.1821L20.3318 34.221L22.2042 34.2626L20.3318 34.0961L17.1279 32.0989L16.8782 31.5996L20.3318 33.8881L22.2042 34.0961L20.3318 33.7633L16.8782 31.4331L16.7164 31.0171V30.809L16.6685 27.2975L21.6399 20.4813L22.6685 20.1572L25.994 21.3409L23.1758 20.0445L25.5713 19.2977L28.5867 21.1154L25.994 19.1849L28.8545 18.9172L31.4613 19.0158L28.8545 18.6072L29.5872 16.1554L28.5022 18.6072ZM21.344 20.1572L16.373 26.2695V25.3406L18.9005 22.6183L19.322 19.6235L21.4465 19.9376L21.344 20.1572ZM24.3696 16.7918L23.1168 17.2802L22.5477 18.5196L23.0588 18.4091L24.3696 16.7918ZM25.0992 19.0294L22.3919 19.8425L23.2506 18.7044L25.0992 19.0294ZM19.3837 19.1849L22.0606 18.622L22.8636 16.9018L23.1023 15.0251L19.705 16.9018L19.3837 19.1849ZM20.1455 19.3719L21.6096 19.5881L21.9027 18.9604L20.1455 19.3719ZM22.7382 18.7958L22.3875 18.8683L21.9767 19.6951L22.7382 18.7958ZM15.4197 18.1134L16.2705 13.4847L17.774 12.6289L16.7164 19.4315L15.5087 19.5595L15.4197 18.1134ZM19.8273 16.0327L22.0606 15.0338L20.0567 14.4026L19.8273 16.0327ZM18.4534 22.4602L18.9644 19.6235L17.2308 19.7592L16.6685 24.2206L18.4534 22.4602ZM15.5292 19.8924L15.8457 25.0321L16.6585 19.804L15.5292 19.8924ZM14.9348 20.8393L14.9333 19.939L9.09405 20.3961L11.1858 21.8995L14.9348 20.8393ZM14.9405 24.5979L14.9355 21.2725L11.4708 22.1042L14.9405 24.5979ZM14.9439 26.3331L14.9427 25.5871L10.8685 22.2488L10.1388 22.424L14.9439 26.3331ZM7.77319 20.4995L9.93043 22.2545L10.633 22.0558L8.64983 20.4309L7.77319 20.4995ZM8.90389 20.2595L12.8913 19.8369L9.0762 17.2827L8.90389 20.2595Z" fill="url(#paint3_linear_141_1257)"/>
    <path fill-rule="evenodd" clip-rule="evenodd" d="M28.5022 18.6072L25.4726 18.9172L23.5032 18.3696L24.7968 16.6552L25.8926 16.2475L29.4047 16.0327L26.7071 15.9445L30.6092 14.4928L25.1452 16.1934L27.1644 13.5807L24.7968 16.3015L23.3024 16.767L23.4637 14.8255L27.4519 12.6224L23.4999 14.3901L23.7233 11.7011L26.2028 8.92757L23.7233 11.391L23.1758 8.92757L23.5251 11.7011L23.164 14.5403L22.6685 14.7619L20.1081 14.0376L20.5984 10.5534L19.9774 14.0007L19.9131 14.3573L19.14 18.7493L18.0191 16.2971L19.0434 19.1849L17.2796 19.3719L18.5744 9.09719L21.5279 7.88739L18.5744 8.67289L17.6729 5.81366L18.3231 9.09719L17.8025 12.4456L17.6846 12.5014L16.1799 13.2129L15.2196 10.8211L15.8247 12.826L15.9059 13.095L15.9716 13.3126L15.0858 17.0639L12.7933 12.1145L12.7601 12.043L12.7913 11.9679L14.3463 8.22659L12.8913 10.6834L10.4226 9.09719L12.7253 11.0064L12.3142 11.8329L8.25034 10.6834L12.2235 12.043L14.9307 18.3758L14.9323 19.3417L10.4226 15.2822L14.5126 19.6651L13.5559 19.7665L9.09077 17.042L9.39505 12.5498L8.8598 16.8962L7.65757 16.1554L7.45277 13.6717V16.03L4.47892 14.2093L8.66968 17.0128L5.16263 18.3758L8.8105 17.2827L8.49366 20.3029L7.64244 20.3931L5.16263 18.3758L7.45277 20.4132L3.43262 20.8393L7.56781 20.5156L9.62076 22.3421L4.79376 23.7071L9.42662 22.5949L7.80623 24.3472L9.89388 22.585L14.9348 27.2975L14.8547 30.809L11.469 33.3888L9.09729 33.8881L11.469 33.5552L15.3803 31.0171L14.9642 31.4331L11.469 33.8465L9.09729 34.2626L11.469 33.9713L14.881 31.7244L14.5897 32.0989L11.469 34.221L9.09729 34.5955L11.469 34.3874L14.4233 32.3902L13.9656 33.0143L11.469 34.5955L9.09729 34.7203H11.469L14.0488 33.1391L15.63 31.1003V32.2237L10.6784 36.0102L15.9212 32.2653L16.1293 31.0171L16.2957 32.1405L14.8394 34.221L12.4676 35.927L15.089 34.3458L16.2957 32.515L17.1279 34.0961L19.8741 35.927L17.3775 33.9713L16.4621 32.3902L16.587 32.0989L16.4205 31.0171L17.0031 32.1821L20.3318 34.221L22.2042 34.2626L20.3318 34.0961L17.1279 32.0989L16.8782 31.5996L20.3318 33.8881L22.2042 34.0961L20.3318 33.7633L16.8782 31.4331L16.7164 31.0171V30.809L16.6685 27.2975L21.6399 20.4813L22.6685 20.1572L25.994 21.3409L23.1758 20.0445L25.5713 19.2977L28.5867 21.1154L25.994 19.1849L28.8545 18.9172L31.4613 19.0158L28.8545 18.6072L29.5872 16.1554L28.5022 18.6072ZM21.344 20.1572L16.373 26.2695V25.3406L18.9005 22.6183L19.322 19.6235L21.4465 19.9376L21.344 20.1572ZM24.3696 16.7918L23.1168 17.2802L22.5477 18.5196L23.0588 18.4091L24.3696 16.7918ZM25.0992 19.0294L22.3919 19.8425L23.2506 18.7044L25.0992 19.0294ZM19.3837 19.1849L22.0606 18.622L22.8636 16.9018L23.1023 15.0251L19.705 16.9018L19.3837 19.1849ZM20.1455 19.3719L21.6096 19.5881L21.9027 18.9604L20.1455 19.3719ZM22.7382 18.7958L22.3875 18.8683L21.9767 19.6951L22.7382 18.7958ZM15.4197 18.1134L16.2705 13.4847L17.774 12.6289L16.7164 19.4315L15.5087 19.5595L15.4197 18.1134ZM19.8273 16.0327L22.0606 15.0338L20.0567 14.4026L19.8273 16.0327ZM18.4534 22.4602L18.9644 19.6235L17.2308 19.7592L16.6685 24.2206L18.4534 22.4602ZM15.5292 19.8924L15.8457 25.0321L16.6585 19.804L15.5292 19.8924ZM14.9348 20.8393L14.9333 19.939L9.09405 20.3961L11.1858 21.8995L14.9348 20.8393ZM14.9405 24.5979L14.9355 21.2725L11.4708 22.1042L14.9405 24.5979ZM14.9439 26.3331L14.9427 25.5871L10.8685 22.2488L10.1388 22.424L14.9439 26.3331ZM7.77319 20.4995L9.93043 22.2545L10.633 22.0558L8.64983 20.4309L7.77319 20.4995ZM8.90389 20.2595L12.8913 19.8369L9.0762 17.2827L8.90389 20.2595Z" fill="url(#paint4_linear_141_1257)"/>
    <path fill-rule="evenodd" clip-rule="evenodd" d="M28.5022 18.6072L25.4726 18.9172L23.5032 18.3696L24.7968 16.6552L25.8926 16.2475L29.4047 16.0327L26.7071 15.9445L30.6092 14.4928L25.1452 16.1934L27.1644 13.5807L24.7968 16.3015L23.3024 16.767L23.4637 14.8255L27.4519 12.6224L23.4999 14.3901L23.7233 11.7011L26.2028 8.92757L23.7233 11.391L23.1758 8.92757L23.5251 11.7011L23.164 14.5403L22.6685 14.7619L20.1081 14.0376L20.5984 10.5534L19.9774 14.0007L19.9131 14.3573L19.14 18.7493L18.0191 16.2971L19.0434 19.1849L17.2796 19.3719L18.5744 9.09719L21.5279 7.88739L18.5744 8.67289L17.6729 5.81366L18.3231 9.09719L17.8025 12.4456L17.6846 12.5014L16.1799 13.2129L15.2196 10.8211L15.8247 12.826L15.9059 13.095L15.9716 13.3126L15.0858 17.0639L12.7933 12.1145L12.7601 12.043L12.7913 11.9679L14.3463 8.22659L12.8913 10.6834L10.4226 9.09719L12.7253 11.0064L12.3142 11.8329L8.25034 10.6834L12.2235 12.043L14.9307 18.3758L14.9323 19.3417L10.4226 15.2822L14.5126 19.6651L13.5559 19.7665L9.09077 17.042L9.39505 12.5498L8.8598 16.8962L7.65757 16.1554L7.45277 13.6717V16.03L4.47892 14.2093L8.66968 17.0128L5.16263 18.3758L8.8105 17.2827L8.49366 20.3029L7.64244 20.3931L5.16263 18.3758L7.45277 20.4132L3.43262 20.8393L7.56781 20.5156L9.62076 22.3421L4.79376 23.7071L9.42662 22.5949L7.80623 24.3472L9.89388 22.585L14.9348 27.2975L14.8547 30.809L11.469 33.3888L9.09729 33.8881L11.469 33.5552L15.3803 31.0171L14.9642 31.4331L11.469 33.8465L9.09729 34.2626L11.469 33.9713L14.881 31.7244L14.5897 32.0989L11.469 34.221L9.09729 34.5955L11.469 34.3874L14.4233 32.3902L13.9656 33.0143L11.469 34.5955L9.09729 34.7203H11.469L14.0488 33.1391L15.63 31.1003V32.2237L10.6784 36.0102L15.9212 32.2653L16.1293 31.0171L16.2957 32.1405L14.8394 34.221L12.4676 35.927L15.089 34.3458L16.2957 32.515L17.1279 34.0961L19.8741 35.927L17.3775 33.9713L16.4621 32.3902L16.587 32.0989L16.4205 31.0171L17.0031 32.1821L20.3318 34.221L22.2042 34.2626L20.3318 34.0961L17.1279 32.0989L16.8782 31.5996L20.3318 33.8881L22.2042 34.0961L20.3318 33.7633L16.8782 31.4331L16.7164 31.0171V30.809L16.6685 27.2975L21.6399 20.4813L22.6685 20.1572L25.994 21.3409L23.1758 20.0445L25.5713 19.2977L28.5867 21.1154L25.994 19.1849L28.8545 18.9172L31.4613 19.0158L28.8545 18.6072L29.5872 16.1554L28.5022 18.6072ZM21.344 20.1572L16.373 26.2695V25.3406L18.9005 22.6183L19.322 19.6235L21.4465 19.9376L21.344 20.1572ZM24.3696 16.7918L23.1168 17.2802L22.5477 18.5196L23.0588 18.4091L24.3696 16.7918ZM25.0992 19.0294L22.3919 19.8425L23.2506 18.7044L25.0992 19.0294ZM19.3837 19.1849L22.0606 18.622L22.8636 16.9018L23.1023 15.0251L19.705 16.9018L19.3837 19.1849ZM20.1455 19.3719L21.6096 19.5881L21.9027 18.9604L20.1455 19.3719ZM22.7382 18.7958L22.3875 18.8683L21.9767 19.6951L22.7382 18.7958ZM15.4197 18.1134L16.2705 13.4847L17.774 12.6289L16.7164 19.4315L15.5087 19.5595L15.4197 18.1134ZM19.8273 16.0327L22.0606 15.0338L20.0567 14.4026L19.8273 16.0327ZM18.4534 22.4602L18.9644 19.6235L17.2308 19.7592L16.6685 24.2206L18.4534 22.4602ZM15.5292 19.8924L15.8457 25.0321L16.6585 19.804L15.5292 19.8924ZM14.9348 20.8393L14.9333 19.939L9.09405 20.3961L11.1858 21.8995L14.9348 20.8393ZM14.9405 24.5979L14.9355 21.2725L11.4708 22.1042L14.9405 24.5979ZM14.9439 26.3331L14.9427 25.5871L10.8685 22.2488L10.1388 22.424L14.9439 26.3331ZM7.77319 20.4995L9.93043 22.2545L10.633 22.0558L8.64983 20.4309L7.77319 20.4995ZM8.90389 20.2595L12.8913 19.8369L9.0762 17.2827L8.90389 20.2595Z" fill="url(#paint5_diamond_141_1257)"/>
    <path fill-rule="evenodd" clip-rule="evenodd" d="M28.5022 18.6072L25.4726 18.9172L23.5032 18.3696L24.7968 16.6552L25.8926 16.2475L29.4047 16.0327L26.7071 15.9445L30.6092 14.4928L25.1452 16.1934L27.1644 13.5807L24.7968 16.3015L23.3024 16.767L23.4637 14.8255L27.4519 12.6224L23.4999 14.3901L23.7233 11.7011L26.2028 8.92757L23.7233 11.391L23.1758 8.92757L23.5251 11.7011L23.164 14.5403L22.6685 14.7619L20.1081 14.0376L20.5984 10.5534L19.9774 14.0007L19.9131 14.3573L19.14 18.7493L18.0191 16.2971L19.0434 19.1849L17.2796 19.3719L18.5744 9.09719L21.5279 7.88739L18.5744 8.67289L17.6729 5.81366L18.3231 9.09719L17.8025 12.4456L17.6846 12.5014L16.1799 13.2129L15.2196 10.8211L15.8247 12.826L15.9059 13.095L15.9716 13.3126L15.0858 17.0639L12.7933 12.1145L12.7601 12.043L12.7913 11.9679L14.3463 8.22659L12.8913 10.6834L10.4226 9.09719L12.7253 11.0064L12.3142 11.8329L8.25034 10.6834L12.2235 12.043L14.9307 18.3758L14.9323 19.3417L10.4226 15.2822L14.5126 19.6651L13.5559 19.7665L9.09077 17.042L9.39505 12.5498L8.8598 16.8962L7.65757 16.1554L7.45277 13.6717V16.03L4.47892 14.2093L8.66968 17.0128L5.16263 18.3758L8.8105 17.2827L8.49366 20.3029L7.64244 20.3931L5.16263 18.3758L7.45277 20.4132L3.43262 20.8393L7.56781 20.5156L9.62076 22.3421L4.79376 23.7071L9.42662 22.5949L7.80623 24.3472L9.89388 22.585L14.9348 27.2975L14.8547 30.809L11.469 33.3888L9.09729 33.8881L11.469 33.5552L15.3803 31.0171L14.9642 31.4331L11.469 33.8465L9.09729 34.2626L11.469 33.9713L14.881 31.7244L14.5897 32.0989L11.469 34.221L9.09729 34.5955L11.469 34.3874L14.4233 32.3902L13.9656 33.0143L11.469 34.5955L9.09729 34.7203H11.469L14.0488 33.1391L15.63 31.1003V32.2237L10.6784 36.0102L15.9212 32.2653L16.1293 31.0171L16.2957 32.1405L14.8394 34.221L12.4676 35.927L15.089 34.3458L16.2957 32.515L17.1279 34.0961L19.8741 35.927L17.3775 33.9713L16.4621 32.3902L16.587 32.0989L16.4205 31.0171L17.0031 32.1821L20.3318 34.221L22.2042 34.2626L20.3318 34.0961L17.1279 32.0989L16.8782 31.5996L20.3318 33.8881L22.2042 34.0961L20.3318 33.7633L16.8782 31.4331L16.7164 31.0171V30.809L16.6685 27.2975L21.6399 20.4813L22.6685 20.1572L25.994 21.3409L23.1758 20.0445L25.5713 19.2977L28.5867 21.1154L25.994 19.1849L28.8545 18.9172L31.4613 19.0158L28.8545 18.6072L29.5872 16.1554L28.5022 18.6072ZM21.344 20.1572L16.373 26.2695V25.3406L18.9005 22.6183L19.322 19.6235L21.4465 19.9376L21.344 20.1572ZM24.3696 16.7918L23.1168 17.2802L22.5477 18.5196L23.0588 18.4091L24.3696 16.7918ZM25.0992 19.0294L22.3919 19.8425L23.2506 18.7044L25.0992 19.0294ZM19.3837 19.1849L22.0606 18.622L22.8636 16.9018L23.1023 15.0251L19.705 16.9018L19.3837 19.1849ZM20.1455 19.3719L21.6096 19.5881L21.9027 18.9604L20.1455 19.3719ZM22.7382 18.7958L22.3875 18.8683L21.9767 19.6951L22.7382 18.7958ZM15.4197 18.1134L16.2705 13.4847L17.774 12.6289L16.7164 19.4315L15.5087 19.5595L15.4197 18.1134ZM19.8273 16.0327L22.0606 15.0338L20.0567 14.4026L19.8273 16.0327ZM18.4534 22.4602L18.9644 19.6235L17.2308 19.7592L16.6685 24.2206L18.4534 22.4602ZM15.5292 19.8924L15.8457 25.0321L16.6585 19.804L15.5292 19.8924ZM14.9348 20.8393L14.9333 19.939L9.09405 20.3961L11.1858 21.8995L14.9348 20.8393ZM14.9405 24.5979L14.9355 21.2725L11.4708 22.1042L14.9405 24.5979ZM14.9439 26.3331L14.9427 25.5871L10.8685 22.2488L10.1388 22.424L14.9439 26.3331ZM7.77319 20.4995L9.93043 22.2545L10.633 22.0558L8.64983 20.4309L7.77319 20.4995ZM8.90389 20.2595L12.8913 19.8369L9.0762 17.2827L8.90389 20.2595Z" fill="url(#paint6_diamond_141_1257)"/>
    <circle cx="7.79337" cy="24.3867" r="0.208047" fill="url(#paint7_linear_141_1257)"/>
    <circle cx="4.77772" cy="23.7449" r="0.291265" fill="url(#paint8_linear_141_1257)"/>
    <circle cx="3.5032" cy="20.8549" r="0.249656" fill="#D9D9D9"/>
    <circle cx="3.5032" cy="20.8549" r="0.249656" fill="url(#paint9_linear_141_1257)"/>
    <circle cx="5.22089" cy="18.4119" r="0.457702" fill="#D9D9D9"/>
    <circle cx="5.22089" cy="18.4119" r="0.457702" fill="url(#paint10_linear_141_1257)"/>
    <circle cx="7.43496" cy="13.7387" r="0.249656" fill="#D9D9D9"/>
    <circle cx="7.43496" cy="13.7387" r="0.249656" fill="url(#paint11_linear_141_1257)"/>
    <circle cx="4.38803" cy="14.1707" r="0.291265" transform="rotate(165 4.38803 14.1707)" fill="#D9D9D9"/>
    <circle cx="4.38803" cy="14.1707" r="0.291265" transform="rotate(165 4.38803 14.1707)" fill="url(#paint12_linear_141_1257)"/>
    <circle cx="9.36788" cy="12.7258" r="0.416093" fill="#D9D9D9"/>
    <circle cx="9.36788" cy="12.7258" r="0.416093" fill="url(#paint13_linear_141_1257)"/>
    <circle cx="10.4567" cy="15.2832" r="0.499312" fill="#D9D9D9"/>
    <circle cx="10.4567" cy="15.2832" r="0.499312" fill="url(#paint14_linear_141_1257)"/>
    <circle cx="10.4567" cy="15.2832" r="0.499312" fill="url(#paint15_linear_141_1257)"/>
    <circle cx="8.10084" cy="10.6439" r="0.291265" fill="#D9D9D9"/>
    <circle cx="8.10084" cy="10.6439" r="0.291265" fill="url(#paint16_linear_141_1257)"/>
    <circle cx="10.3954" cy="9.10781" r="0.249656" fill="#D9D9D9"/>
    <circle cx="10.3954" cy="9.10781" r="0.249656" fill="url(#paint17_linear_141_1257)"/>
    <circle cx="14.4122" cy="8.1375" r="0.291265" transform="rotate(45 14.4122 8.1375)" fill="#D9D9D9"/>
    <circle cx="14.4122" cy="8.1375" r="0.291265" transform="rotate(45 14.4122 8.1375)" fill="url(#paint18_linear_141_1257)"/>
    <circle cx="15.1988" cy="10.8767" r="0.374484" fill="#D9D9D9"/>
    <circle cx="15.1988" cy="10.8767" r="0.374484" fill="url(#paint19_linear_141_1257)"/>
    <circle cx="21.6128" cy="7.86243" r="0.291265" transform="rotate(90 21.6128 7.86243)" fill="#D9D9D9"/>
    <circle cx="21.6128" cy="7.86243" r="0.291265" transform="rotate(90 21.6128 7.86243)" fill="url(#paint20_linear_141_1257)"/>
    <circle cx="20.5944" cy="10.549" r="0.416093" transform="rotate(47.423 20.5944 10.549)" fill="#D9D9D9"/>
    <circle cx="20.5944" cy="10.549" r="0.416093" transform="rotate(47.423 20.5944 10.549)" fill="url(#paint21_linear_141_1257)"/>
    <circle cx="23.1388" cy="8.83086" r="0.249656" transform="rotate(38.6266 23.1388 8.83086)" fill="#D9D9D9"/>
    <circle cx="23.1388" cy="8.83086" r="0.249656" transform="rotate(38.6266 23.1388 8.83086)" fill="url(#paint22_linear_141_1257)"/>
    <circle cx="26.2932" cy="8.77402" r="0.332874" transform="rotate(75 26.2932 8.77402)" fill="#D9D9D9"/>
    <circle cx="26.2932" cy="8.77402" r="0.332874" transform="rotate(75 26.2932 8.77402)" fill="url(#paint23_linear_141_1257)"/>
    <circle cx="26.2932" cy="8.77402" r="0.332874" transform="rotate(75 26.2932 8.77402)" fill="url(#paint24_linear_141_1257)"/>
    <circle cx="27.3645" cy="12.6669" r="0.291265" transform="rotate(90 27.3645 12.6669)" fill="#D9D9D9"/>
    <circle cx="27.3645" cy="12.6669" r="0.291265" transform="rotate(90 27.3645 12.6669)" fill="url(#paint25_linear_141_1257)"/>
    <circle cx="27.3645" cy="12.6669" r="0.291265" transform="rotate(90 27.3645 12.6669)" fill="url(#paint26_linear_141_1257)"/>
    <circle cx="27.3645" cy="12.6669" r="0.291265" transform="rotate(90 27.3645 12.6669)" fill="url(#paint27_linear_141_1257)"/>
    <circle cx="26.9793" cy="13.7631" r="0.374484" transform="rotate(55.2617 26.9793 13.7631)" fill="#D9D9D9"/>
    <circle cx="26.9793" cy="13.7631" r="0.374484" transform="rotate(55.2617 26.9793 13.7631)" fill="url(#paint28_linear_141_1257)"/>
    <circle cx="26.9793" cy="13.7631" r="0.374484" transform="rotate(55.2617 26.9793 13.7631)" fill="url(#paint29_linear_141_1257)"/>
    <circle cx="26.9793" cy="13.7631" r="0.374484" transform="rotate(55.2617 26.9793 13.7631)" fill="url(#paint30_linear_141_1257)"/>
    <circle cx="30.2622" cy="14.6324" r="0.374484" transform="rotate(86.1014 30.2622 14.6324)" fill="#D9D9D9"/>
    <circle cx="30.2622" cy="14.6324" r="0.374484" transform="rotate(86.1014 30.2622 14.6324)" fill="url(#paint31_linear_141_1257)"/>
    <circle cx="30.2622" cy="14.6324" r="0.374484" transform="rotate(86.1014 30.2622 14.6324)" fill="url(#paint32_linear_141_1257)"/>
    <circle cx="29.5902" cy="16.0746" r="0.540921" transform="rotate(73.5236 29.5902 16.0746)" fill="#D9D9D9"/>
    <circle cx="29.5902" cy="16.0746" r="0.540921" transform="rotate(73.5236 29.5902 16.0746)" fill="url(#paint33_linear_141_1257)"/>
    <circle cx="31.4895" cy="19.0668" r="0.291265" transform="rotate(142.815 31.4895 19.0668)" fill="#D9D9D9"/>
    <circle cx="31.4895" cy="19.0668" r="0.291265" transform="rotate(142.815 31.4895 19.0668)" fill="url(#paint34_linear_141_1257)"/>
    <circle cx="28.5905" cy="21.1715" r="0.249656" transform="rotate(150 28.5905 21.1715)" fill="#D9D9D9"/>
    <circle cx="28.5905" cy="21.1715" r="0.249656" transform="rotate(150 28.5905 21.1715)" fill="url(#paint35_linear_141_1257)"/>
    <circle cx="26.0822" cy="21.3769" r="0.374484" transform="rotate(150.835 26.0822 21.3769)" fill="#D9D9D9"/>
    <circle cx="26.0822" cy="21.3769" r="0.374484" transform="rotate(150.835 26.0822 21.3769)" fill="url(#paint36_linear_141_1257)"/>
    <circle cx="18.019" cy="16.3891" r="0.208047" fill="#D9D9D9"/>
    <circle cx="18.019" cy="16.3891" r="0.208047" fill="url(#paint37_linear_141_1257)"/>
    <circle cx="17.6359" cy="5.78544" r="0.208047" fill="#D9D9D9"/>
    <circle cx="17.6359" cy="5.78544" r="0.208047" fill="url(#paint38_linear_141_1257)"/>
  </g>
  <circle cx="16.5" cy="16.5" r="15.5704" stroke="url(#paint39_linear_141_1257)" stroke-width="1.85915"/>
  <defs>
    <linearGradient id="paint0_linear_141_1257" x1="16.5" y1="0" x2="16.5" y2="33" gradientUnits="userSpaceOnUse">
      <stop stop-color="#F86049"/>
      <stop offset="0.69" stop-color="#9302CF"/>
    </linearGradient>
    <radialGradient id="paint1_diamond_141_1257" cx="0" cy="0" r="1" gradientUnits="userSpaceOnUse" gradientTransform="translate(15.4354 23.8129) rotate(56.0099) scale(7.75381 4.39204)">
      <stop stop-color="#FF8934"/>
      <stop offset="1" stop-color="#FE7A30" stop-opacity="0.68"/>
    </radialGradient>
    <linearGradient id="paint2_linear_141_1257" x1="16.5296" y1="31.4562" x2="16.5296" y2="25.1357" gradientUnits="userSpaceOnUse">
      <stop stop-color="#A91CC1"/>
      <stop offset="1" stop-color="#A91CC1" stop-opacity="0"/>
    </linearGradient>
    <linearGradient id="paint3_linear_141_1257" x1="12.8105" y1="23.5449" x2="-5.08732" y2="16.1289" gradientUnits="userSpaceOnUse">
      <stop stop-color="#35A5F6" stop-opacity="0"/>
      <stop offset="0.39259" stop-color="#35A5F6"/>
      <stop offset="1" stop-color="#35A5F6" stop-opacity="0.37"/>
    </linearGradient>
    <linearGradient id="paint4_linear_141_1257" x1="13.6559" y1="7.68016" x2="12.9099" y2="17.124" gradientUnits="userSpaceOnUse">
      <stop stop-color="#FA00FF"/>
      <stop offset="1" stop-color="#FA00FF" stop-opacity="0"/>
    </linearGradient>
    <radialGradient id="paint5_diamond_141_1257" cx="0" cy="0" r="1" gradientUnits="userSpaceOnUse" gradientTransform="translate(29.1753 6.83298) rotate(134.682) scale(19.8011 33.8678)">
      <stop stop-color="#7600EC"/>
      <stop offset="0.58189" stop-color="#7600EC"/>
      <stop offset="1" stop-color="#7600EC" stop-opacity="0"/>
    </radialGradient>
    <radialGradient id="paint6_diamond_141_1257" cx="0" cy="0" r="1" gradientUnits="userSpaceOnUse" gradientTransform="translate(29.6884 19.7008) rotate(177.332) scale(8.03638 7.45944)">
      <stop stop-color="#FF005C"/>
      <stop offset="1" stop-color="#FF005C" stop-opacity="0.21"/>
    </radialGradient>
    <linearGradient id="paint7_linear_141_1257" x1="7.96316" y1="24.2331" x2="7.58533" y2="24.5528" gradientUnits="userSpaceOnUse">
      <stop stop-color="#884D81"/>
      <stop offset="1" stop-color="#D795E7"/>
    </linearGradient>
    <linearGradient id="paint8_linear_141_1257" x1="4.98547" y1="23.6724" x2="4.39734" y2="23.8899" gradientUnits="userSpaceOnUse">
      <stop stop-color="#4D69A6"/>
      <stop offset="1" stop-color="#F19CFF"/>
    </linearGradient>
    <linearGradient id="paint9_linear_141_1257" x1="3.76763" y1="20.8232" x2="3.16407" y2="20.8935" gradientUnits="userSpaceOnUse">
      <stop stop-color="#3780C3"/>
      <stop offset="1" stop-color="#D782FF"/>
    </linearGradient>
    <linearGradient id="paint10_linear_141_1257" x1="5.5731" y1="18.5206" x2="4.49943" y2="18.0442" gradientUnits="userSpaceOnUse">
      <stop stop-color="#4790DC"/>
      <stop offset="1" stop-color="#FB4EFF"/>
    </linearGradient>
    <linearGradient id="paint11_linear_141_1257" x1="7.47286" y1="13.9883" x2="7.1853" y2="13.489" gradientUnits="userSpaceOnUse">
      <stop stop-color="#6B6AD9"/>
      <stop offset="1" stop-color="#BEF3FF"/>
    </linearGradient>
    <linearGradient id="paint12_linear_141_1257" x1="4.611" y1="14.3764" x2="4.09676" y2="13.8794" gradientUnits="userSpaceOnUse">
      <stop stop-color="#80CCFF"/>
      <stop offset="1" stop-color="#C376FF"/>
    </linearGradient>
    <linearGradient id="paint13_linear_141_1257" x1="9.36788" y1="13.1419" x2="9.42215" y2="12.1553" gradientUnits="userSpaceOnUse">
      <stop stop-color="#9236D4"/>
      <stop offset="1" stop-color="#FEB470"/>
    </linearGradient>
    <linearGradient id="paint14_linear_141_1257" x1="10.8389" y1="15.6359" x2="9.9574" y2="14.7839" gradientUnits="userSpaceOnUse">
      <stop stop-color="#067BC9"/>
      <stop offset="1" stop-color="#76C8FF"/>
    </linearGradient>
    <linearGradient id="paint15_linear_141_1257" x1="10.8389" y1="15.6359" x2="9.9574" y2="14.8977" gradientUnits="userSpaceOnUse">
      <stop stop-color="#CD4EB9"/>
      <stop offset="1" stop-color="#FFDEAC"/>
    </linearGradient>
    <linearGradient id="paint16_linear_141_1257" x1="8.3773" y1="10.769" x2="7.80957" y2="10.3526" gradientUnits="userSpaceOnUse">
      <stop stop-color="#703FB8"/>
      <stop offset="1" stop-color="#FFBD5A"/>
    </linearGradient>
    <linearGradient id="paint17_linear_141_1257" x1="10.5865" y1="9.28415" x2="10.1458" y2="8.85815" gradientUnits="userSpaceOnUse">
      <stop stop-color="#9F21C5"/>
      <stop offset="1" stop-color="#FFC451"/>
    </linearGradient>
    <linearGradient id="paint18_linear_141_1257" x1="14.5109" y1="8.38261" x2="14.2838" y2="7.82166" gradientUnits="userSpaceOnUse">
      <stop stop-color="#D708EB"/>
      <stop offset="1" stop-color="#FFD698"/>
    </linearGradient>
    <linearGradient id="paint19_linear_141_1257" x1="15.3413" y1="11.1651" x2="14.8243" y2="10.5022" gradientUnits="userSpaceOnUse">
      <stop stop-color="#D50DE6"/>
      <stop offset="1" stop-color="#FFEDC9"/>
    </linearGradient>
    <linearGradient id="paint20_linear_141_1257" x1="21.6898" y1="8.11838" x2="21.3215" y2="7.57117" gradientUnits="userSpaceOnUse">
      <stop stop-color="#7C04C9"/>
      <stop offset="1" stop-color="#FFDF8D"/>
    </linearGradient>
    <linearGradient id="paint21_linear_141_1257" x1="20.9129" y1="10.8429" x2="20.1783" y2="10.1329" gradientUnits="userSpaceOnUse">
      <stop stop-color="#8003E0"/>
      <stop offset="1" stop-color="#FFB284"/>
    </linearGradient>
    <linearGradient id="paint22_linear_141_1257" x1="23.3299" y1="9.0072" x2="22.8891" y2="8.58121" gradientUnits="userSpaceOnUse">
      <stop stop-color="#7501E5"/>
      <stop offset="1" stop-color="#FFB284"/>
    </linearGradient>
    <linearGradient id="paint23_linear_141_1257" x1="26.548" y1="9.00914" x2="25.9603" y2="8.44114" gradientUnits="userSpaceOnUse">
      <stop stop-color="#E56317"/>
      <stop offset="1" stop-color="#FFB284"/>
    </linearGradient>
    <linearGradient id="paint24_linear_141_1257" x1="26.548" y1="9.00914" x2="25.9603" y2="8.44114" gradientUnits="userSpaceOnUse">
      <stop stop-color="#7201E2"/>
      <stop offset="1" stop-color="#FFB284"/>
    </linearGradient>
    <linearGradient id="paint25_linear_141_1257" x1="27.5875" y1="12.8726" x2="27.0732" y2="12.3756" gradientUnits="userSpaceOnUse">
      <stop stop-color="#E56317"/>
      <stop offset="1" stop-color="#FFB284"/>
    </linearGradient>
    <linearGradient id="paint26_linear_141_1257" x1="27.5875" y1="12.8726" x2="27.0732" y2="12.3756" gradientUnits="userSpaceOnUse">
      <stop stop-color="#F45D00"/>
      <stop offset="1" stop-color="#FFB284"/>
    </linearGradient>
    <linearGradient id="paint27_linear_141_1257" x1="27.5875" y1="12.8726" x2="27.0732" y2="12.3756" gradientUnits="userSpaceOnUse">
      <stop stop-color="#7401DC"/>
      <stop offset="1" stop-color="#FF9A5E"/>
    </linearGradient>
    <linearGradient id="paint28_linear_141_1257" x1="27.2659" y1="14.0276" x2="26.6048" y2="13.3886" gradientUnits="userSpaceOnUse">
      <stop stop-color="#E56317"/>
      <stop offset="1" stop-color="#FFB284"/>
    </linearGradient>
    <linearGradient id="paint29_linear_141_1257" x1="27.2659" y1="14.0276" x2="26.6048" y2="13.3886" gradientUnits="userSpaceOnUse">
      <stop stop-color="#F45D00"/>
      <stop offset="1" stop-color="#FFB284"/>
    </linearGradient>
    <linearGradient id="paint30_linear_141_1257" x1="27.2659" y1="14.0276" x2="26.6048" y2="13.3886" gradientUnits="userSpaceOnUse">
      <stop stop-color="#7802CF"/>
      <stop offset="1" stop-color="#FF9A5E"/>
    </linearGradient>
    <linearGradient id="paint31_linear_141_1257" x1="30.5489" y1="14.8969" x2="29.8877" y2="14.2579" gradientUnits="userSpaceOnUse">
      <stop stop-color="#F45D00"/>
      <stop offset="1" stop-color="#FFB284"/>
    </linearGradient>
    <linearGradient id="paint32_linear_141_1257" x1="30.3572" y1="14.997" x2="30.0585" y2="14.1239" gradientUnits="userSpaceOnUse">
      <stop stop-color="#7C049D"/>
      <stop offset="1" stop-color="#FF9A5E"/>
    </linearGradient>
    <linearGradient id="paint33_linear_141_1257" x1="29.7311" y1="16.5925" x2="29.0492" y2="15.5337" gradientUnits="userSpaceOnUse">
      <stop stop-color="#A00488"/>
      <stop offset="1" stop-color="#FF9A5E"/>
    </linearGradient>
    <linearGradient id="paint34_linear_141_1257" x1="31.7125" y1="19.2725" x2="31.1982" y2="18.7755" gradientUnits="userSpaceOnUse">
      <stop stop-color="#B3045C"/>
      <stop offset="1" stop-color="#FF9A5E"/>
    </linearGradient>
    <linearGradient id="paint35_linear_141_1257" x1="28.7816" y1="21.3478" x2="28.3408" y2="20.9218" gradientUnits="userSpaceOnUse">
      <stop stop-color="#E70267"/>
      <stop offset="1" stop-color="#FFAA6D"/>
    </linearGradient>
    <linearGradient id="paint36_linear_141_1257" x1="26.3689" y1="21.6414" x2="25.7077" y2="21.0024" gradientUnits="userSpaceOnUse">
      <stop stop-color="#E5026D"/>
      <stop offset="1" stop-color="#FF8744"/>
    </linearGradient>
    <linearGradient id="paint37_linear_141_1257" x1="18.1072" y1="16.5458" x2="17.8109" y2="16.181" gradientUnits="userSpaceOnUse">
      <stop stop-color="#AF2AAC"/>
      <stop offset="1" stop-color="#EDADFD"/>
    </linearGradient>
    <linearGradient id="paint38_linear_141_1257" x1="17.7105" y1="5.93965" x2="17.4279" y2="5.57739" gradientUnits="userSpaceOnUse">
      <stop stop-color="#B105CC"/>
      <stop offset="1" stop-color="#FFD66C"/>
    </linearGradient>
    <linearGradient id="paint39_linear_141_1257" x1="16.5" y1="0" x2="16.5" y2="33" gradientUnits="userSpaceOnUse">
      <stop stop-color="#F86049"/>
      <stop offset="0.69" stop-color="#9302CF"/>
    </linearGradient>
  </defs>
</svg>